<?xml version="1.0" encoding="UTF-8"?>
<svg xmlns="http://www.w3.org/2000/svg" xmlns:xlink="http://www.w3.org/1999/xlink" width="425.197pt" height="98.61pt" viewBox="0 0 425.197 98.61" version="1.1">
<defs>
<g>
<symbol overflow="visible" id="glyph0-0">
<path style="stroke:none;" d=""/>
</symbol>
<symbol overflow="visible" id="glyph0-1">
<path style="stroke:none;" d="M 3.578125 -8.15625 L 3.578125 -7.8125 C 4.40625 -7.8125 4.5 -7.734375 4.5 -7.140625 L 4.5 -4.5 C 4.25 -4.859375 3.734375 -5.265625 3 -5.265625 C 1.609375 -5.265625 0.421875 -4.09375 0.421875 -2.5625 C 0.421875 -1.046875 1.546875 0.125 2.875 0.125 C 3.78125 0.125 4.296875 -0.484375 4.46875 -0.703125 L 4.46875 0.125 L 6.15625 0 L 6.15625 -0.34375 C 5.34375 -0.34375 5.25 -0.4375 5.25 -1.015625 L 5.25 -8.296875 Z M 4.46875 -1.40625 C 4.46875 -1.1875 4.46875 -1.140625 4.296875 -0.890625 C 4.015625 -0.46875 3.53125 -0.125 2.921875 -0.125 C 2.625 -0.125 1.328125 -0.234375 1.328125 -2.5625 C 1.328125 -3.421875 1.46875 -3.890625 1.734375 -4.296875 C 1.96875 -4.65625 2.453125 -5.03125 3.046875 -5.03125 C 3.796875 -5.03125 4.203125 -4.5 4.328125 -4.296875 C 4.46875 -4.09375 4.46875 -4.078125 4.46875 -3.859375 Z M 4.46875 -1.40625 "/>
</symbol>
<symbol overflow="visible" id="glyph0-2">
<path style="stroke:none;" d="M 4.609375 -3.1875 C 4.609375 -3.84375 4.609375 -4.3125 4.09375 -4.78125 C 3.671875 -5.15625 3.125 -5.328125 2.609375 -5.328125 C 1.625 -5.328125 0.875 -4.6875 0.875 -3.90625 C 0.875 -3.5625 1.09375 -3.390625 1.375 -3.390625 C 1.65625 -3.390625 1.859375 -3.59375 1.859375 -3.890625 C 1.859375 -4.375 1.4375 -4.375 1.25 -4.375 C 1.53125 -4.875 2.109375 -5.09375 2.578125 -5.09375 C 3.125 -5.09375 3.84375 -4.640625 3.84375 -3.5625 L 3.84375 -3.078125 C 1.4375 -3.046875 0.53125 -2.046875 0.53125 -1.125 C 0.53125 -0.171875 1.625 0.125 2.359375 0.125 C 3.140625 0.125 3.6875 -0.359375 3.90625 -0.9375 C 3.953125 -0.375 4.328125 0.0625 4.84375 0.0625 C 5.09375 0.0625 5.78125 -0.109375 5.78125 -1.0625 L 5.78125 -1.734375 L 5.515625 -1.734375 L 5.515625 -1.0625 C 5.515625 -0.375 5.234375 -0.28125 5.0625 -0.28125 C 4.609375 -0.28125 4.609375 -0.921875 4.609375 -1.09375 Z M 3.84375 -1.6875 C 3.84375 -0.515625 2.96875 -0.125 2.453125 -0.125 C 1.859375 -0.125 1.375 -0.546875 1.375 -1.125 C 1.375 -2.703125 3.40625 -2.84375 3.84375 -2.875 Z M 3.84375 -1.6875 "/>
</symbol>
<symbol overflow="visible" id="glyph0-3">
<path style="stroke:none;" d="M 2.015625 -4.8125 L 3.6875 -4.8125 L 3.6875 -5.15625 L 2.015625 -5.15625 L 2.015625 -7.34375 L 1.75 -7.34375 C 1.734375 -6.234375 1.296875 -5.078125 0.21875 -5.046875 L 0.21875 -4.8125 L 1.234375 -4.8125 L 1.234375 -1.484375 C 1.234375 -0.15625 2.109375 0.125 2.75 0.125 C 3.5 0.125 3.890625 -0.625 3.890625 -1.484375 L 3.890625 -2.15625 L 3.640625 -2.15625 L 3.640625 -1.5 C 3.640625 -0.640625 3.28125 -0.140625 2.828125 -0.140625 C 2.015625 -0.140625 2.015625 -1.25 2.015625 -1.453125 Z M 2.015625 -4.8125 "/>
</symbol>
<symbol overflow="visible" id="glyph0-4">
<path style="stroke:none;" d="M 3.921875 -5.0625 C 3.921875 -5.265625 3.921875 -5.328125 3.796875 -5.328125 C 3.703125 -5.328125 3.484375 -5.0625 3.390625 -4.953125 C 3.03125 -5.265625 2.65625 -5.328125 2.265625 -5.328125 C 0.828125 -5.328125 0.390625 -4.546875 0.390625 -3.890625 C 0.390625 -3.75 0.390625 -3.328125 0.84375 -2.921875 C 1.234375 -2.578125 1.640625 -2.5 2.1875 -2.390625 C 2.84375 -2.265625 3 -2.21875 3.296875 -1.984375 C 3.515625 -1.8125 3.671875 -1.546875 3.671875 -1.203125 C 3.671875 -0.6875 3.375 -0.125 2.3125 -0.125 C 1.53125 -0.125 0.953125 -0.578125 0.6875 -1.765625 C 0.640625 -1.984375 0.640625 -2 0.640625 -2.015625 C 0.609375 -2.0625 0.5625 -2.0625 0.53125 -2.0625 C 0.390625 -2.0625 0.390625 -2 0.390625 -1.78125 L 0.390625 -0.15625 C 0.390625 0.0625 0.390625 0.125 0.515625 0.125 C 0.578125 0.125 0.578125 0.109375 0.78125 -0.140625 C 0.84375 -0.234375 0.84375 -0.25 1.03125 -0.4375 C 1.484375 0.125 2.125 0.125 2.328125 0.125 C 3.578125 0.125 4.203125 -0.578125 4.203125 -1.515625 C 4.203125 -2.15625 3.8125 -2.546875 3.703125 -2.65625 C 3.28125 -3.03125 2.953125 -3.09375 2.15625 -3.234375 C 1.8125 -3.3125 0.9375 -3.484375 0.9375 -4.203125 C 0.9375 -4.5625 1.1875 -5.109375 2.265625 -5.109375 C 3.5625 -5.109375 3.640625 -4 3.65625 -3.640625 C 3.671875 -3.53125 3.75 -3.53125 3.796875 -3.53125 C 3.921875 -3.53125 3.921875 -3.59375 3.921875 -3.8125 Z M 3.921875 -5.0625 "/>
</symbol>
<symbol overflow="visible" id="glyph0-5">
<path style="stroke:none;" d="M 5.484375 -2.5625 C 5.484375 -4.09375 4.3125 -5.328125 2.921875 -5.328125 C 1.5 -5.328125 0.359375 -4.0625 0.359375 -2.5625 C 0.359375 -1.03125 1.546875 0.125 2.921875 0.125 C 4.328125 0.125 5.484375 -1.046875 5.484375 -2.5625 Z M 2.921875 -0.140625 C 2.484375 -0.140625 1.953125 -0.328125 1.609375 -0.921875 C 1.28125 -1.453125 1.265625 -2.15625 1.265625 -2.671875 C 1.265625 -3.125 1.265625 -3.84375 1.640625 -4.390625 C 1.96875 -4.90625 2.5 -5.09375 2.921875 -5.09375 C 3.375 -5.09375 3.890625 -4.875 4.203125 -4.40625 C 4.578125 -3.859375 4.578125 -3.109375 4.578125 -2.671875 C 4.578125 -2.25 4.578125 -1.5 4.265625 -0.9375 C 3.9375 -0.375 3.375 -0.140625 2.921875 -0.140625 Z M 2.921875 -0.140625 "/>
</symbol>
<symbol overflow="visible" id="glyph0-6">
<path style="stroke:none;" d="M 3.640625 -5.140625 L 3.640625 -4.796875 C 4.453125 -4.796875 4.546875 -4.703125 4.546875 -4.125 L 4.546875 -1.984375 C 4.546875 -0.96875 4 -0.125 3.109375 -0.125 C 2.125 -0.125 2.0625 -0.6875 2.0625 -1.3125 L 2.0625 -5.265625 L 0.375 -5.140625 L 0.375 -4.796875 C 1.296875 -4.796875 1.296875 -4.75 1.296875 -3.6875 L 1.296875 -1.90625 C 1.296875 -1.15625 1.296875 -0.734375 1.65625 -0.328125 C 1.9375 -0.03125 2.421875 0.125 3.03125 0.125 C 3.234375 0.125 3.625 0.125 4.03125 -0.234375 C 4.375 -0.5 4.5625 -0.953125 4.5625 -0.953125 L 4.5625 0.125 L 6.234375 0 L 6.234375 -0.34375 C 5.421875 -0.34375 5.3125 -0.4375 5.3125 -1.015625 L 5.3125 -5.265625 Z M 3.640625 -5.140625 "/>
</symbol>
<symbol overflow="visible" id="glyph0-7">
<path style="stroke:none;" d="M 2 -2.78125 C 2 -3.9375 2.46875 -5.03125 3.390625 -5.03125 C 3.484375 -5.03125 3.515625 -5.03125 3.5625 -5.015625 C 3.46875 -4.96875 3.28125 -4.90625 3.28125 -4.578125 C 3.28125 -4.234375 3.546875 -4.09375 3.734375 -4.09375 C 3.984375 -4.09375 4.21875 -4.25 4.21875 -4.578125 C 4.21875 -4.9375 3.890625 -5.265625 3.375 -5.265625 C 2.359375 -5.265625 2.015625 -4.171875 1.953125 -3.9375 L 1.9375 -3.9375 L 1.9375 -5.265625 L 0.328125 -5.140625 L 0.328125 -4.796875 C 1.140625 -4.796875 1.25 -4.703125 1.25 -4.125 L 1.25 -0.890625 C 1.25 -0.34375 1.109375 -0.34375 0.328125 -0.34375 L 0.328125 0 C 0.671875 -0.03125 1.328125 -0.03125 1.6875 -0.03125 C 2.015625 -0.03125 2.859375 -0.03125 3.125 0 L 3.125 -0.34375 L 2.890625 -0.34375 C 2.015625 -0.34375 2 -0.484375 2 -0.90625 Z M 2 -2.78125 "/>
</symbol>
<symbol overflow="visible" id="glyph0-8">
<path style="stroke:none;" d="M 4.328125 -4.421875 C 4.1875 -4.421875 3.734375 -4.421875 3.734375 -3.9375 C 3.734375 -3.640625 3.9375 -3.4375 4.234375 -3.4375 C 4.5 -3.4375 4.734375 -3.609375 4.734375 -3.953125 C 4.734375 -4.75 3.890625 -5.328125 2.921875 -5.328125 C 1.53125 -5.328125 0.421875 -4.09375 0.421875 -2.578125 C 0.421875 -1.046875 1.5625 0.125 2.921875 0.125 C 4.5 0.125 4.859375 -1.3125 4.859375 -1.421875 C 4.859375 -1.53125 4.765625 -1.53125 4.734375 -1.53125 C 4.625 -1.53125 4.609375 -1.5 4.578125 -1.34375 C 4.3125 -0.5 3.671875 -0.140625 3.03125 -0.140625 C 2.296875 -0.140625 1.328125 -0.78125 1.328125 -2.59375 C 1.328125 -4.578125 2.34375 -5.0625 2.9375 -5.0625 C 3.390625 -5.0625 4.046875 -4.890625 4.328125 -4.421875 Z M 4.328125 -4.421875 "/>
</symbol>
<symbol overflow="visible" id="glyph0-9">
<path style="stroke:none;" d="M 4.578125 -2.765625 C 4.84375 -2.765625 4.859375 -2.765625 4.859375 -3 C 4.859375 -4.203125 4.21875 -5.328125 2.765625 -5.328125 C 1.40625 -5.328125 0.359375 -4.09375 0.359375 -2.625 C 0.359375 -1.046875 1.578125 0.125 2.90625 0.125 C 4.328125 0.125 4.859375 -1.171875 4.859375 -1.421875 C 4.859375 -1.5 4.8125 -1.546875 4.734375 -1.546875 C 4.640625 -1.546875 4.609375 -1.484375 4.59375 -1.421875 C 4.28125 -0.421875 3.484375 -0.140625 2.96875 -0.140625 C 2.46875 -0.140625 1.265625 -0.484375 1.265625 -2.546875 L 1.265625 -2.765625 Z M 1.28125 -3 C 1.375 -4.875 2.421875 -5.09375 2.765625 -5.09375 C 4.046875 -5.09375 4.109375 -3.40625 4.125 -3 Z M 1.28125 -3 "/>
</symbol>
<symbol overflow="visible" id="glyph0-10">
<path style="stroke:none;" d="M 4.84375 -4 C 5.15625 -4.796875 5.71875 -4.8125 5.953125 -4.8125 L 5.953125 -5.15625 C 5.609375 -5.125 5.4375 -5.125 5.0625 -5.125 C 4.78125 -5.125 4.75 -5.125 4.09375 -5.15625 L 4.09375 -4.8125 C 4.53125 -4.78125 4.640625 -4.5 4.640625 -4.296875 C 4.640625 -4.1875 4.609375 -4.125 4.5625 -4 L 3.34375 -0.984375 L 2.015625 -4.25 C 1.953125 -4.40625 1.953125 -4.484375 1.953125 -4.5 C 1.953125 -4.8125 2.359375 -4.8125 2.609375 -4.8125 L 2.609375 -5.15625 C 2.296875 -5.125 1.703125 -5.125 1.375 -5.125 C 0.921875 -5.125 0.890625 -5.125 0.21875 -5.15625 L 0.21875 -4.8125 C 0.90625 -4.8125 1 -4.75 1.15625 -4.375 L 2.9375 0 C 2.421875 1.265625 2.421875 1.296875 2.359375 1.390625 C 2.15625 1.75 1.84375 2.203125 1.296875 2.203125 C 0.9375 2.203125 0.703125 1.984375 0.703125 1.984375 C 0.703125 1.984375 1.125 1.9375 1.125 1.515625 C 1.125 1.234375 0.890625 1.078125 0.6875 1.078125 C 0.484375 1.078125 0.234375 1.1875 0.234375 1.546875 C 0.234375 2 0.671875 2.4375 1.296875 2.4375 C 1.96875 2.4375 2.46875 1.859375 2.765625 1.09375 Z M 4.84375 -4 "/>
</symbol>
<symbol overflow="visible" id="glyph0-11">
<path style="stroke:none;" d="M 2.921875 1.96875 C 2.15625 1.96875 2.015625 1.96875 2.015625 1.4375 L 2.015625 -0.640625 C 2.234375 -0.34375 2.71875 0.125 3.484375 0.125 C 4.859375 0.125 6.078125 -1.046875 6.078125 -2.578125 C 6.078125 -4.09375 4.953125 -5.265625 3.640625 -5.265625 C 2.59375 -5.265625 2.03125 -4.515625 2 -4.46875 L 2 -5.265625 L 0.328125 -5.140625 L 0.328125 -4.796875 C 1.171875 -4.796875 1.25 -4.703125 1.25 -4.1875 L 1.25 1.4375 C 1.25 1.96875 1.109375 1.96875 0.328125 1.96875 L 0.328125 2.3125 C 0.640625 2.296875 1.296875 2.296875 1.625 2.296875 C 1.96875 2.296875 2.625 2.296875 2.921875 2.3125 Z M 2.015625 -3.8125 C 2.015625 -4.046875 2.015625 -4.046875 2.15625 -4.25 C 2.515625 -4.78125 3.09375 -5.015625 3.546875 -5.015625 C 4.453125 -5.015625 5.15625 -3.921875 5.15625 -2.578125 C 5.15625 -1.15625 4.34375 -0.125 3.4375 -0.125 C 3.0625 -0.125 2.71875 -0.28125 2.46875 -0.5 C 2.203125 -0.78125 2.015625 -1.015625 2.015625 -1.34375 Z M 2.015625 -3.8125 "/>
</symbol>
<symbol overflow="visible" id="glyph0-12">
<path style="stroke:none;" d="M 4.625 -8.3125 C 4.578125 -8.46875 4.546875 -8.53125 4.390625 -8.53125 C 4.21875 -8.53125 4.203125 -8.5 4.140625 -8.3125 L 1.640625 -1.15625 C 1.46875 -0.671875 1.140625 -0.359375 0.375 -0.34375 L 0.375 0 C 1.09375 -0.03125 1.125 -0.03125 1.515625 -0.03125 C 1.859375 -0.03125 2.421875 -0.03125 2.734375 0 L 2.734375 -0.34375 C 2.234375 -0.359375 1.9375 -0.609375 1.9375 -0.9375 C 1.9375 -1.015625 1.9375 -1.046875 2 -1.1875 L 2.546875 -2.78125 L 5.5625 -2.78125 L 6.21875 -0.90625 C 6.28125 -0.765625 6.28125 -0.734375 6.28125 -0.703125 C 6.28125 -0.34375 5.671875 -0.34375 5.359375 -0.34375 L 5.359375 0 C 5.640625 -0.03125 6.59375 -0.03125 6.921875 -0.03125 C 7.25 -0.03125 8.109375 -0.03125 8.390625 0 L 8.390625 -0.34375 C 7.609375 -0.34375 7.40625 -0.34375 7.234375 -0.84375 Z M 4.046875 -7.109375 L 5.4375 -3.125 L 2.671875 -3.125 Z M 4.046875 -7.109375 "/>
</symbol>
<symbol overflow="visible" id="glyph0-13">
<path style="stroke:none;" d="M 2 -8.296875 L 0.328125 -8.15625 L 0.328125 -7.8125 C 1.140625 -7.8125 1.25 -7.734375 1.25 -7.140625 L 1.25 0 L 1.5 0 C 1.546875 -0.09375 1.890625 -0.6875 1.9375 -0.78125 C 2.21875 -0.328125 2.71875 0.125 3.484375 0.125 C 4.859375 0.125 6.078125 -1.046875 6.078125 -2.578125 C 6.078125 -4.09375 4.953125 -5.265625 3.625 -5.265625 C 2.96875 -5.265625 2.40625 -4.96875 2 -4.46875 Z M 2.015625 -3.828125 C 2.015625 -4.046875 2.015625 -4.0625 2.15625 -4.25 C 2.4375 -4.6875 2.96875 -5.03125 3.546875 -5.03125 C 3.90625 -5.03125 5.15625 -4.890625 5.15625 -2.59375 C 5.15625 -1.796875 5.046875 -1.296875 4.75 -0.859375 C 4.515625 -0.484375 4.046875 -0.125 3.4375 -0.125 C 2.796875 -0.125 2.375 -0.53125 2.171875 -0.859375 C 2.015625 -1.109375 2.015625 -1.15625 2.015625 -1.359375 Z M 2.015625 -3.828125 "/>
</symbol>
<symbol overflow="visible" id="glyph0-14">
<path style="stroke:none;" d="M 4.875 -4.015625 C 4.984375 -4.28125 5.1875 -4.796875 5.953125 -4.8125 L 5.953125 -5.15625 C 5.609375 -5.125 5.4375 -5.125 5.0625 -5.125 C 4.8125 -5.125 4.640625 -5.125 4.09375 -5.15625 L 4.09375 -4.8125 C 4.59375 -4.78125 4.65625 -4.421875 4.65625 -4.296875 C 4.65625 -4.1875 4.625 -4.125 4.5625 -3.984375 L 3.34375 -0.890625 L 2.015625 -4.265625 C 1.953125 -4.4375 1.9375 -4.4375 1.9375 -4.5 C 1.9375 -4.8125 2.390625 -4.8125 2.609375 -4.8125 L 2.609375 -5.15625 C 2.3125 -5.125 1.6875 -5.125 1.359375 -5.125 C 0.96875 -5.125 0.9375 -5.125 0.21875 -5.15625 L 0.21875 -4.8125 C 0.890625 -4.8125 1 -4.75 1.140625 -4.390625 L 2.859375 -0.109375 C 2.921875 0.0625 2.9375 0.125 3.078125 0.125 C 3.171875 0.125 3.234375 0.09375 3.328125 -0.109375 Z M 4.875 -4.015625 "/>
</symbol>
<symbol overflow="visible" id="glyph0-15">
<path style="stroke:none;" d="M 5.3125 -2.90625 C 5.3125 -4.015625 5.3125 -4.34375 5.046875 -4.734375 C 4.703125 -5.203125 4.140625 -5.265625 3.734375 -5.265625 C 2.5625 -5.265625 2.109375 -4.28125 2.015625 -4.046875 L 2.015625 -5.265625 L 0.375 -5.140625 L 0.375 -4.796875 C 1.1875 -4.796875 1.296875 -4.703125 1.296875 -4.125 L 1.296875 -0.890625 C 1.296875 -0.34375 1.15625 -0.34375 0.375 -0.34375 L 0.375 0 C 0.6875 -0.03125 1.34375 -0.03125 1.671875 -0.03125 C 2.015625 -0.03125 2.671875 -0.03125 2.96875 0 L 2.96875 -0.34375 C 2.21875 -0.34375 2.0625 -0.34375 2.0625 -0.890625 L 2.0625 -3.109375 C 2.0625 -4.359375 2.890625 -5.03125 3.640625 -5.03125 C 4.375 -5.03125 4.546875 -4.421875 4.546875 -3.6875 L 4.546875 -0.890625 C 4.546875 -0.34375 4.40625 -0.34375 3.640625 -0.34375 L 3.640625 0 C 3.9375 -0.03125 4.59375 -0.03125 4.921875 -0.03125 C 5.265625 -0.03125 5.921875 -0.03125 6.234375 0 L 6.234375 -0.34375 C 5.625 -0.34375 5.328125 -0.34375 5.3125 -0.703125 Z M 5.3125 -2.90625 "/>
</symbol>
<symbol overflow="visible" id="glyph0-16">
<path style="stroke:none;" d="M 5.046875 -4.0625 C 6.234375 -4.34375 7.140625 -5.09375 7.140625 -6.015625 C 7.140625 -7.171875 5.796875 -8.15625 4.078125 -8.15625 L 0.5 -8.15625 L 0.5 -7.8125 L 0.734375 -7.8125 C 1.609375 -7.8125 1.640625 -7.703125 1.640625 -7.25 L 1.640625 -0.90625 C 1.640625 -0.46875 1.609375 -0.34375 0.734375 -0.34375 L 0.5 -0.34375 L 0.5 0 C 0.78125 -0.03125 1.75 -0.03125 2.109375 -0.03125 C 2.453125 -0.03125 3.4375 -0.03125 3.71875 0 L 3.71875 -0.34375 L 3.484375 -0.34375 C 2.625 -0.34375 2.578125 -0.46875 2.578125 -0.90625 L 2.578125 -3.96875 L 3.96875 -3.96875 C 4.4375 -3.96875 4.875 -3.84375 5.203125 -3.5 C 5.609375 -3.046875 5.609375 -2.796875 5.609375 -1.96875 C 5.609375 -1.03125 5.609375 -0.71875 6.125 -0.203125 C 6.3125 -0.03125 6.8125 0.25 7.484375 0.25 C 8.421875 0.25 8.578125 -0.78125 8.578125 -1.046875 C 8.578125 -1.109375 8.578125 -1.21875 8.4375 -1.21875 C 8.3125 -1.21875 8.3125 -1.140625 8.3125 -1.03125 C 8.25 -0.3125 7.90625 0.015625 7.515625 0.015625 C 6.96875 0.015625 6.84375 -0.546875 6.75 -1.1875 C 6.734375 -1.265625 6.671875 -1.78125 6.640625 -2.078125 C 6.546875 -2.671875 6.5 -3.0625 6.140625 -3.4375 C 6.015625 -3.5625 5.703125 -3.890625 5.046875 -4.0625 Z M 3.921875 -4.203125 L 2.578125 -4.203125 L 2.578125 -7.34375 C 2.578125 -7.609375 2.578125 -7.75 2.828125 -7.8125 C 2.9375 -7.8125 3.296875 -7.8125 3.53125 -7.8125 C 4.5 -7.8125 6.03125 -7.8125 6.03125 -6.015625 C 6.03125 -4.96875 5.46875 -4.203125 3.921875 -4.203125 Z M 3.921875 -4.203125 "/>
</symbol>
<symbol overflow="visible" id="glyph0-17">
<path style="stroke:none;" d="M 8.453125 -4.046875 C 8.453125 -6.53125 6.640625 -8.421875 4.546875 -8.421875 C 2.421875 -8.421875 0.640625 -6.5 0.640625 -4.046875 C 0.640625 -1.625 2.453125 0.25 4.546875 0.25 C 6.6875 0.25 8.453125 -1.65625 8.453125 -4.046875 Z M 4.546875 -0.03125 C 3.328125 -0.03125 1.75 -1.171875 1.75 -4.234375 C 1.75 -7.15625 3.421875 -8.15625 4.546875 -8.15625 C 5.71875 -8.15625 7.34375 -7.125 7.34375 -4.234375 C 7.34375 -1.125 5.71875 -0.03125 4.546875 -0.03125 Z M 4.546875 -0.03125 "/>
</symbol>
<symbol overflow="visible" id="glyph0-18">
<path style="stroke:none;" d="M 2.484375 -4.984375 C 1.875 -5.140625 1.34375 -5.734375 1.34375 -6.5 C 1.34375 -7.34375 2.015625 -8.09375 2.9375 -8.09375 C 4.90625 -8.09375 5.15625 -6.15625 5.234375 -5.640625 C 5.265625 -5.5 5.265625 -5.453125 5.375 -5.453125 C 5.515625 -5.453125 5.515625 -5.515625 5.515625 -5.71875 L 5.515625 -8.140625 C 5.515625 -8.359375 5.515625 -8.421875 5.390625 -8.421875 C 5.359375 -8.421875 5.3125 -8.421875 5.21875 -8.265625 L 4.828125 -7.53125 C 4.25 -8.265625 3.46875 -8.421875 2.9375 -8.421875 C 1.609375 -8.421875 0.640625 -7.34375 0.640625 -6.125 C 0.640625 -5.5625 0.84375 -5.03125 1.296875 -4.546875 C 1.703125 -4.09375 2.125 -3.984375 2.96875 -3.765625 C 3.390625 -3.671875 4.046875 -3.5 4.21875 -3.4375 C 4.78125 -3.15625 5.15625 -2.515625 5.15625 -1.84375 C 5.15625 -0.9375 4.515625 -0.09375 3.53125 -0.09375 C 2.984375 -0.09375 2.25 -0.234375 1.65625 -0.734375 C 0.96875 -1.359375 0.921875 -2.21875 0.90625 -2.625 C 0.890625 -2.71875 0.796875 -2.71875 0.78125 -2.71875 C 0.640625 -2.71875 0.640625 -2.65625 0.640625 -2.4375 L 0.640625 -0.03125 C 0.640625 0.1875 0.640625 0.25 0.765625 0.25 C 0.84375 0.25 0.84375 0.234375 0.9375 0.078125 C 0.984375 -0.015625 1.234375 -0.453125 1.328125 -0.640625 C 1.75 -0.15625 2.515625 0.25 3.53125 0.25 C 4.875 0.25 5.84375 -0.890625 5.84375 -2.203125 C 5.84375 -2.921875 5.5625 -3.46875 5.25 -3.859375 C 4.8125 -4.40625 4.265625 -4.53125 3.796875 -4.65625 Z M 2.484375 -4.984375 "/>
</symbol>
<symbol overflow="visible" id="glyph0-19">
<path style="stroke:none;" d="M 2.078125 -7.359375 C 2.078125 -7.671875 1.828125 -7.953125 1.5 -7.953125 C 1.1875 -7.953125 0.921875 -7.703125 0.921875 -7.375 C 0.921875 -7.015625 1.203125 -6.796875 1.5 -6.796875 C 1.859375 -6.796875 2.078125 -7.09375 2.078125 -7.359375 Z M 0.4375 -5.140625 L 0.4375 -4.796875 C 1.1875 -4.796875 1.296875 -4.71875 1.296875 -4.140625 L 1.296875 -0.890625 C 1.296875 -0.34375 1.171875 -0.34375 0.390625 -0.34375 L 0.390625 0 C 0.734375 -0.03125 1.296875 -0.03125 1.65625 -0.03125 C 1.78125 -0.03125 2.46875 -0.03125 2.875 0 L 2.875 -0.34375 C 2.109375 -0.34375 2.0625 -0.40625 2.0625 -0.875 L 2.0625 -5.265625 Z M 0.4375 -5.140625 "/>
</symbol>
<symbol overflow="visible" id="glyph1-0">
<path style="stroke:none;" d=""/>
</symbol>
<symbol overflow="visible" id="glyph1-1">
<path style="stroke:none;" d="M 4.953125 -3.390625 C 4.953125 -4.296875 4.265625 -5.265625 2.65625 -5.265625 C 2.15625 -5.265625 0.984375 -5.265625 0.984375 -4.4375 C 0.984375 -4.109375 1.21875 -3.9375 1.484375 -3.9375 C 1.546875 -3.9375 1.953125 -3.953125 1.953125 -4.453125 C 1.953125 -4.515625 1.96875 -4.53125 2.21875 -4.546875 C 2.359375 -4.5625 2.515625 -4.5625 2.671875 -4.5625 C 2.9375 -4.5625 3.34375 -4.5625 3.734375 -4.265625 C 4.171875 -3.9375 4.171875 -3.59375 4.171875 -3.25 C 3.46875 -3.234375 2.765625 -3.171875 2.03125 -2.9375 C 1.4375 -2.734375 0.671875 -2.3125 0.671875 -1.5 C 0.671875 -0.640625 1.421875 0.078125 2.53125 0.078125 C 2.921875 0.078125 3.65625 0.015625 4.28125 -0.421875 C 4.515625 -0.03125 5.109375 0 5.5625 0 C 5.859375 0 6.140625 0 6.140625 -0.34375 C 6.140625 -0.6875 5.828125 -0.6875 5.671875 -0.6875 C 5.359375 -0.6875 5.109375 -0.71875 4.953125 -0.78125 Z M 4.171875 -1.578125 C 4.171875 -1.296875 4.171875 -1.046875 3.6875 -0.828125 C 3.265625 -0.625 2.703125 -0.625 2.671875 -0.625 C 1.953125 -0.625 1.453125 -1 1.453125 -1.5 C 1.453125 -2.203125 2.71875 -2.609375 4.171875 -2.609375 Z M 4.171875 -1.578125 "/>
</symbol>
<symbol overflow="visible" id="glyph1-2">
<path style="stroke:none;" d="M 5.015625 -4.8125 C 5.015625 -5 5.015625 -5.265625 4.6875 -5.265625 C 4.40625 -5.265625 4.328125 -4.984375 4.328125 -4.96875 C 3.84375 -5.265625 3.296875 -5.265625 3.0625 -5.265625 C 1.109375 -5.265625 0.84375 -4.265625 0.84375 -3.859375 C 0.84375 -3.375 1.140625 -3.03125 1.546875 -2.8125 C 1.921875 -2.59375 2.265625 -2.53125 3.25 -2.375 C 3.71875 -2.296875 4.671875 -2.140625 4.671875 -1.484375 C 4.671875 -1.046875 4.265625 -0.625 3.15625 -0.625 C 2.390625 -0.625 1.890625 -0.921875 1.640625 -1.78125 C 1.578125 -1.953125 1.546875 -2.078125 1.25 -2.078125 C 0.84375 -2.078125 0.84375 -1.859375 0.84375 -1.609375 L 0.84375 -0.375 C 0.84375 -0.1875 0.84375 0.078125 1.1875 0.078125 C 1.328125 0.078125 1.4375 0.078125 1.609375 -0.421875 C 2.15625 0.03125 2.78125 0.078125 3.15625 0.078125 C 5.359375 0.078125 5.359375 -1.359375 5.359375 -1.484375 C 5.359375 -2.71875 3.890625 -2.96875 3.3125 -3.0625 C 2.265625 -3.234375 1.546875 -3.359375 1.546875 -3.859375 C 1.546875 -4.1875 1.90625 -4.5625 3.03125 -4.5625 C 4.171875 -4.5625 4.21875 -4.03125 4.25 -3.71875 C 4.265625 -3.484375 4.484375 -3.4375 4.625 -3.4375 C 5.015625 -3.4375 5.015625 -3.65625 5.015625 -3.890625 Z M 5.015625 -4.8125 "/>
</symbol>
<symbol overflow="visible" id="glyph1-3">
<path style="stroke:none;" d="M 4.96875 -2.296875 C 5.21875 -2.296875 5.453125 -2.296875 5.453125 -2.734375 C 5.453125 -4.140625 4.65625 -5.265625 3.171875 -5.265625 C 1.78125 -5.265625 0.671875 -4.0625 0.671875 -2.609375 C 0.671875 -1.09375 1.875 0.078125 3.34375 0.078125 C 4.890625 0.078125 5.453125 -0.984375 5.453125 -1.296875 C 5.453125 -1.375 5.421875 -1.640625 5.0625 -1.640625 C 4.828125 -1.640625 4.75 -1.546875 4.6875 -1.375 C 4.390625 -0.6875 3.609375 -0.625 3.375 -0.625 C 2.390625 -0.625 1.609375 -1.375 1.46875 -2.296875 Z M 1.484375 -2.953125 C 1.640625 -3.96875 2.421875 -4.5625 3.171875 -4.5625 C 4.359375 -4.5625 4.609375 -3.546875 4.65625 -2.953125 Z M 1.484375 -2.953125 "/>
</symbol>
<symbol overflow="visible" id="glyph1-4">
<path style="stroke:none;" d="M 1.921875 -6.8125 C 1.921875 -7.1875 1.859375 -7.296875 1.453125 -7.296875 L 0.65625 -7.296875 C 0.484375 -7.296875 0.171875 -7.296875 0.171875 -6.953125 C 0.171875 -6.609375 0.484375 -6.609375 0.65625 -6.609375 L 1.140625 -6.609375 L 1.140625 -0.484375 C 1.140625 -0.28125 1.140625 0 1.546875 0 C 1.921875 0 1.921875 -0.25 1.921875 -0.59375 C 2.21875 -0.28125 2.65625 0.078125 3.328125 0.078125 C 4.59375 0.078125 5.703125 -1.0625 5.703125 -2.578125 C 5.703125 -4.046875 4.703125 -5.21875 3.453125 -5.21875 C 2.578125 -5.21875 2.03125 -4.703125 1.921875 -4.578125 Z M 1.921875 -3.171875 C 1.921875 -3.859375 2.59375 -4.53125 3.375 -4.53125 C 4.234375 -4.53125 4.921875 -3.65625 4.921875 -2.578125 C 4.921875 -1.4375 4.109375 -0.625 3.265625 -0.625 C 2.359375 -0.625 1.921875 -1.640625 1.921875 -2.234375 Z M 1.921875 -3.171875 "/>
</symbol>
<symbol overflow="visible" id="glyph1-5">
<path style="stroke:none;" d="M 5.390625 -7.65625 C 5.421875 -7.734375 5.46875 -7.8125 5.46875 -7.90625 C 5.46875 -8.15625 5.265625 -8.296875 5.078125 -8.296875 C 4.828125 -8.296875 4.734375 -8.09375 4.671875 -7.96875 L 0.75 0.34375 C 0.71875 0.4375 0.6875 0.515625 0.6875 0.59375 C 0.6875 0.84375 0.890625 0.984375 1.0625 0.984375 C 1.3125 0.984375 1.40625 0.796875 1.46875 0.671875 Z M 5.390625 -7.65625 "/>
</symbol>
<symbol overflow="visible" id="glyph1-6">
<path style="stroke:none;" d="M 5 -3.5 C 5 -4.671875 4.453125 -5.21875 3.46875 -5.21875 C 2.65625 -5.21875 2.125 -4.765625 1.921875 -4.546875 C 1.921875 -4.984375 1.921875 -5.15625 1.453125 -5.15625 L 0.65625 -5.15625 C 0.484375 -5.15625 0.171875 -5.15625 0.171875 -4.8125 C 0.171875 -4.453125 0.484375 -4.453125 0.65625 -4.453125 L 1.140625 -4.453125 L 1.140625 -0.6875 L 0.65625 -0.6875 C 0.484375 -0.6875 0.171875 -0.6875 0.171875 -0.34375 C 0.171875 0 0.484375 0 0.65625 0 L 2.421875 0 C 2.578125 0 2.890625 0 2.890625 -0.34375 C 2.890625 -0.6875 2.578125 -0.6875 2.421875 -0.6875 L 1.921875 -0.6875 L 1.921875 -2.859375 C 1.921875 -4.015625 2.734375 -4.53125 3.375 -4.53125 C 4.078125 -4.53125 4.21875 -4.140625 4.21875 -3.453125 L 4.21875 -0.6875 L 3.734375 -0.6875 C 3.5625 -0.6875 3.25 -0.6875 3.25 -0.34375 C 3.25 0 3.5625 0 3.734375 0 L 5.484375 0 C 5.65625 0 5.96875 0 5.96875 -0.34375 C 5.96875 -0.6875 5.65625 -0.6875 5.484375 -0.6875 L 5 -0.6875 Z M 5 -3.5 "/>
</symbol>
<symbol overflow="visible" id="glyph1-7">
<path style="stroke:none;" d="M 5.453125 -2.578125 C 5.453125 -4.078125 4.359375 -5.265625 3.078125 -5.265625 C 1.78125 -5.265625 0.6875 -4.078125 0.6875 -2.578125 C 0.6875 -1.078125 1.796875 0.078125 3.078125 0.078125 C 4.34375 0.078125 5.453125 -1.078125 5.453125 -2.578125 Z M 3.078125 -0.625 C 2.21875 -0.625 1.46875 -1.53125 1.46875 -2.671875 C 1.46875 -3.78125 2.234375 -4.5625 3.078125 -4.5625 C 3.90625 -4.5625 4.671875 -3.78125 4.671875 -2.671875 C 4.671875 -1.515625 3.9375 -0.625 3.078125 -0.625 Z M 3.078125 -0.625 "/>
</symbol>
<symbol overflow="visible" id="glyph1-8">
<path style="stroke:none;" d="M 5.0625 -4.453125 L 5.375 -4.453125 C 5.546875 -4.453125 5.875 -4.453125 5.875 -4.8125 C 5.875 -5.15625 5.546875 -5.15625 5.375 -5.15625 L 4.0625 -5.15625 C 3.890625 -5.15625 3.578125 -5.15625 3.578125 -4.8125 C 3.578125 -4.453125 3.890625 -4.453125 4.0625 -4.453125 L 4.359375 -4.453125 C 4.03125 -3.484375 3.34375 -1.484375 3.171875 -0.796875 C 3.109375 -1.0625 3.0625 -1.1875 2.9375 -1.515625 L 1.828125 -4.453125 L 2.109375 -4.453125 C 2.265625 -4.453125 2.59375 -4.453125 2.59375 -4.8125 C 2.59375 -5.15625 2.265625 -5.15625 2.109375 -5.15625 L 0.78125 -5.15625 C 0.625 -5.15625 0.296875 -5.15625 0.296875 -4.8125 C 0.296875 -4.453125 0.625 -4.453125 0.78125 -4.453125 L 1.109375 -4.453125 L 2.78125 -0.15625 C 2.828125 -0.03125 2.828125 -0.015625 2.828125 0 C 2.828125 0.03125 2.515625 1.0625 2.34375 1.40625 C 2.265625 1.515625 1.96875 2.078125 1.40625 2.015625 C 1.40625 1.984375 1.453125 1.90625 1.453125 1.78125 C 1.453125 1.5 1.25 1.3125 0.984375 1.3125 C 0.6875 1.3125 0.5 1.515625 0.5 1.796875 C 0.5 2.25 0.890625 2.71875 1.484375 2.71875 C 2.640625 2.71875 3.15625 1.1875 3.1875 1.09375 Z M 5.0625 -4.453125 "/>
</symbol>
<symbol overflow="visible" id="glyph1-9">
<path style="stroke:none;" d="M 5.421875 -3.625 C 5.421875 -3.890625 5.421875 -5.21875 4.359375 -5.21875 C 3.9375 -5.21875 3.53125 -5.03125 3.21875 -4.59375 C 3.140625 -4.765625 2.875 -5.21875 2.3125 -5.21875 C 1.765625 -5.21875 1.40625 -4.875 1.296875 -4.765625 C 1.296875 -5.15625 1.046875 -5.15625 0.828125 -5.15625 L 0.46875 -5.15625 C 0.296875 -5.15625 -0.015625 -5.15625 -0.015625 -4.8125 C -0.015625 -4.453125 0.265625 -4.453125 0.640625 -4.453125 L 0.640625 -0.6875 C 0.25 -0.6875 -0.015625 -0.6875 -0.015625 -0.34375 C -0.015625 0 0.296875 0 0.46875 0 L 1.46875 0 C 1.640625 0 1.953125 0 1.953125 -0.34375 C 1.953125 -0.6875 1.671875 -0.6875 1.296875 -0.6875 L 1.296875 -2.890625 C 1.296875 -3.890625 1.734375 -4.53125 2.265625 -4.53125 C 2.59375 -4.53125 2.6875 -4.109375 2.6875 -3.546875 L 2.6875 -0.6875 C 2.484375 -0.6875 2.15625 -0.6875 2.15625 -0.34375 C 2.15625 0 2.484375 0 2.65625 0 L 3.53125 0 C 3.6875 0 4 0 4 -0.34375 C 4 -0.6875 3.734375 -0.6875 3.359375 -0.6875 L 3.359375 -2.890625 C 3.359375 -3.890625 3.796875 -4.53125 4.3125 -4.53125 C 4.65625 -4.53125 4.75 -4.109375 4.75 -3.546875 L 4.75 -0.6875 C 4.546875 -0.6875 4.21875 -0.6875 4.21875 -0.34375 C 4.21875 0 4.546875 0 4.703125 0 L 5.578125 0 C 5.75 0 6.0625 0 6.0625 -0.34375 C 6.0625 -0.6875 5.78125 -0.6875 5.421875 -0.6875 Z M 5.421875 -3.625 "/>
</symbol>
<symbol overflow="visible" id="glyph1-10">
<path style="stroke:none;" d="M 5 -4.65625 C 5 -5.03125 4.921875 -5.15625 4.515625 -5.15625 L 3.734375 -5.15625 C 3.5625 -5.15625 3.25 -5.15625 3.25 -4.8125 C 3.25 -4.453125 3.5625 -4.453125 3.734375 -4.453125 L 4.21875 -4.453125 L 4.21875 -1.859375 C 4.21875 -0.890625 3.40625 -0.625 2.875 -0.625 C 1.921875 -0.625 1.921875 -1.046875 1.921875 -1.421875 L 1.921875 -4.65625 C 1.921875 -5.03125 1.859375 -5.15625 1.453125 -5.15625 L 0.65625 -5.15625 C 0.484375 -5.15625 0.171875 -5.15625 0.171875 -4.8125 C 0.171875 -4.453125 0.484375 -4.453125 0.65625 -4.453125 L 1.140625 -4.453125 L 1.140625 -1.359375 C 1.140625 -0.265625 1.859375 0.078125 2.78125 0.078125 C 3.515625 0.078125 3.96875 -0.234375 4.203125 -0.4375 C 4.203125 0 4.5 0 4.703125 0 L 5.484375 0 C 5.65625 0 5.96875 0 5.96875 -0.34375 C 5.96875 -0.6875 5.65625 -0.6875 5.484375 -0.6875 L 5 -0.6875 Z M 5 -4.65625 "/>
</symbol>
<symbol overflow="visible" id="glyph1-11">
<path style="stroke:none;" d="M 5.0625 -4.453125 L 5.375 -4.453125 C 5.546875 -4.453125 5.875 -4.453125 5.875 -4.8125 C 5.875 -5.15625 5.546875 -5.15625 5.375 -5.15625 L 4.0625 -5.15625 C 3.890625 -5.15625 3.578125 -5.15625 3.578125 -4.8125 C 3.578125 -4.453125 3.890625 -4.453125 4.0625 -4.453125 L 4.359375 -4.453125 L 3.078125 -0.609375 L 1.78125 -4.453125 L 2.078125 -4.453125 C 2.25 -4.453125 2.5625 -4.453125 2.5625 -4.8125 C 2.5625 -5.15625 2.25 -5.15625 2.078125 -5.15625 L 0.765625 -5.15625 C 0.59375 -5.15625 0.28125 -5.15625 0.28125 -4.8125 C 0.28125 -4.453125 0.59375 -4.453125 0.765625 -4.453125 L 1.078125 -4.453125 L 2.453125 -0.34375 C 2.578125 0.0625 2.84375 0.0625 3.078125 0.0625 C 3.296875 0.0625 3.5625 0.0625 3.6875 -0.34375 Z M 5.0625 -4.453125 "/>
</symbol>
<symbol overflow="visible" id="glyph1-12">
<path style="stroke:none;" d="M 2.578125 -4.453125 L 4.515625 -4.453125 C 4.6875 -4.453125 5 -4.453125 5 -4.8125 C 5 -5.15625 4.6875 -5.15625 4.515625 -5.15625 L 2.578125 -5.15625 L 2.578125 -6.125 C 2.578125 -6.34375 2.578125 -6.625 2.203125 -6.625 C 1.8125 -6.625 1.8125 -6.34375 1.8125 -6.125 L 1.8125 -5.15625 L 0.78125 -5.15625 C 0.625 -5.15625 0.296875 -5.15625 0.296875 -4.8125 C 0.296875 -4.453125 0.609375 -4.453125 0.78125 -4.453125 L 1.8125 -4.453125 L 1.8125 -1.453125 C 1.8125 -0.328125 2.5625 0.078125 3.4375 0.078125 C 4.078125 0.078125 5.265625 -0.25 5.265625 -1.46875 C 5.265625 -1.703125 5.265625 -1.96875 4.859375 -1.96875 C 4.484375 -1.96875 4.484375 -1.703125 4.484375 -1.453125 C 4.46875 -0.734375 3.796875 -0.625 3.515625 -0.625 C 2.578125 -0.625 2.578125 -1.21875 2.578125 -1.5 Z M 2.578125 -4.453125 "/>
</symbol>
</g>
</defs>
<g id="surface1">
<path style="fill-rule:nonzero;fill:rgb(100%,75%,50%);fill-opacity:1;stroke-width:0.3985;stroke-linecap:butt;stroke-linejoin:miter;stroke:rgb(0%,0%,0%);stroke-opacity:1;stroke-miterlimit:10;" d="M -4.253656 -4.253375 L 4.25025 -4.253375 L 4.25025 4.250531 L -4.253656 4.250531 Z M -4.253656 -4.253375 " transform="matrix(1,0,0,-1,310.406,82.356)"/>
<path style="fill-rule:nonzero;fill:rgb(100%,75%,50%);fill-opacity:1;stroke-width:0.3985;stroke-linecap:butt;stroke-linejoin:miter;stroke:rgb(0%,0%,0%);stroke-opacity:1;stroke-miterlimit:10;" d="M 4.25025 -4.253375 L 12.758063 -4.253375 L 12.758063 4.250531 L 4.25025 4.250531 Z M 4.25025 -4.253375 " transform="matrix(1,0,0,-1,310.406,82.356)"/>
<path style="fill-rule:nonzero;fill:rgb(100%,75%,50%);fill-opacity:1;stroke-width:0.3985;stroke-linecap:butt;stroke-linejoin:miter;stroke:rgb(0%,0%,0%);stroke-opacity:1;stroke-miterlimit:10;" d="M 12.758063 -4.253375 L 21.261969 -4.253375 L 21.261969 4.250531 L 12.758063 4.250531 Z M 12.758063 -4.253375 " transform="matrix(1,0,0,-1,310.406,82.356)"/>
<g style="fill:rgb(0%,0%,0%);fill-opacity:1;">
  <use xlink:href="#glyph0-1" x="279.092" y="86.507"/>
  <use xlink:href="#glyph0-2" x="285.595629" y="86.507"/>
  <use xlink:href="#glyph0-3" x="291.448895" y="86.507"/>
  <use xlink:href="#glyph0-2" x="296.001435" y="86.507"/>
</g>
<path style="fill-rule:nonzero;fill:rgb(50%,50%,100%);fill-opacity:1;stroke-width:0.3985;stroke-linecap:butt;stroke-linejoin:miter;stroke:rgb(0%,0%,0%);stroke-opacity:1;stroke-miterlimit:10;" d="M -4.253656 29.76225 L 4.25025 29.76225 L 4.25025 38.270062 L -4.253656 38.270062 Z M -4.253656 29.76225 " transform="matrix(1,0,0,-1,310.406,82.356)"/>
<g style="fill:rgb(0%,0%,0%);fill-opacity:1;">
  <use xlink:href="#glyph0-4" x="269.923" y="50.914"/>
  <use xlink:href="#glyph0-5" x="274.540098" y="50.914"/>
  <use xlink:href="#glyph0-6" x="280.393364" y="50.914"/>
  <use xlink:href="#glyph0-7" x="286.896993" y="50.914"/>
  <use xlink:href="#glyph0-8" x="291.449533" y="50.914"/>
  <use xlink:href="#glyph0-9" x="296.652436" y="50.914"/>
</g>
<path style="fill-rule:nonzero;fill:rgb(100%,50%,50%);fill-opacity:1;stroke-width:0.3985;stroke-linecap:butt;stroke-linejoin:miter;stroke:rgb(0%,0%,0%);stroke-opacity:1;stroke-miterlimit:10;" d="M -4.253656 12.754437 L 4.25025 12.754437 L 4.25025 21.258344 L -4.253656 21.258344 Z M -4.253656 12.754437 " transform="matrix(1,0,0,-1,310.406,82.356)"/>
<g style="fill:rgb(0%,0%,0%);fill-opacity:1;">
  <use xlink:href="#glyph0-3" x="279.417" y="67.862"/>
</g>
<g style="fill:rgb(0%,0%,0%);fill-opacity:1;">
  <use xlink:href="#glyph0-10" x="283.64675" y="67.862"/>
  <use xlink:href="#glyph0-11" x="289.825197" y="67.862"/>
</g>
<g style="fill:rgb(0%,0%,0%);fill-opacity:1;">
  <use xlink:href="#glyph0-9" x="296.651616" y="67.862"/>
</g>
<path style="fill:none;stroke-width:0.3985;stroke-linecap:butt;stroke-linejoin:miter;stroke:rgb(0%,0%,0%);stroke-opacity:1;stroke-miterlimit:10;" d="M -48.488031 -12.151813 L 25.359625 -12.151813 L 25.359625 44.590375 L -48.488031 44.590375 Z M -48.488031 -12.151813 " transform="matrix(1,0,0,-1,310.406,82.356)"/>
<g style="fill:rgb(0%,0%,0%);fill-opacity:1;">
  <use xlink:href="#glyph0-12" x="267.922" y="33.689"/>
  <use xlink:href="#glyph0-4" x="276.697117" y="33.689"/>
  <use xlink:href="#glyph0-9" x="281.314215" y="33.689"/>
  <use xlink:href="#glyph0-13" x="286.517118" y="33.689"/>
  <use xlink:href="#glyph0-2" x="293.020747" y="33.689"/>
</g>
<g style="fill:rgb(0%,0%,0%);fill-opacity:1;">
  <use xlink:href="#glyph0-9" x="302.771408" y="33.689"/>
  <use xlink:href="#glyph0-14" x="307.974311" y="33.689"/>
</g>
<g style="fill:rgb(0%,0%,0%);fill-opacity:1;">
  <use xlink:href="#glyph0-9" x="313.829968" y="33.689"/>
  <use xlink:href="#glyph0-15" x="319.032871" y="33.689"/>
</g>
<g style="fill:rgb(0%,0%,0%);fill-opacity:1;">
  <use xlink:href="#glyph0-3" x="325.213709" y="33.689"/>
</g>
<path style="fill-rule:nonzero;fill:rgb(100%,75%,50%);fill-opacity:1;stroke-width:0.3985;stroke-linecap:butt;stroke-linejoin:miter;stroke:rgb(0%,0%,0%);stroke-opacity:1;stroke-miterlimit:10;" d="M -145.988031 -4.253375 L -137.480219 -4.253375 L -137.480219 4.250531 L -145.988031 4.250531 Z M -145.988031 -4.253375 " transform="matrix(1,0,0,-1,310.406,82.356)"/>
<path style="fill-rule:nonzero;fill:rgb(100%,75%,50%);fill-opacity:1;stroke-width:0.3985;stroke-linecap:butt;stroke-linejoin:miter;stroke:rgb(0%,0%,0%);stroke-opacity:1;stroke-miterlimit:10;" d="M -137.480219 -4.253375 L -128.976312 -4.253375 L -128.976312 4.250531 L -137.480219 4.250531 Z M -137.480219 -4.253375 " transform="matrix(1,0,0,-1,310.406,82.356)"/>
<path style="fill-rule:nonzero;fill:rgb(100%,75%,50%);fill-opacity:1;stroke-width:0.3985;stroke-linecap:butt;stroke-linejoin:miter;stroke:rgb(0%,0%,0%);stroke-opacity:1;stroke-miterlimit:10;" d="M -128.976312 -4.253375 L -120.472406 -4.253375 L -120.472406 4.250531 L -128.976312 4.250531 Z M -128.976312 -4.253375 " transform="matrix(1,0,0,-1,310.406,82.356)"/>
<g style="fill:rgb(0%,0%,0%);fill-opacity:1;">
  <use xlink:href="#glyph0-1" x="137.36" y="86.507"/>
  <use xlink:href="#glyph0-2" x="143.863629" y="86.507"/>
  <use xlink:href="#glyph0-3" x="149.716895" y="86.507"/>
  <use xlink:href="#glyph0-2" x="154.269435" y="86.507"/>
</g>
<path style="fill-rule:nonzero;fill:rgb(50%,50%,100%);fill-opacity:1;stroke-width:0.3985;stroke-linecap:butt;stroke-linejoin:miter;stroke:rgb(0%,0%,0%);stroke-opacity:1;stroke-miterlimit:10;" d="M -145.988031 29.76225 L -137.480219 29.76225 L -137.480219 38.270062 L -145.988031 38.270062 Z M -145.988031 29.76225 " transform="matrix(1,0,0,-1,310.406,82.356)"/>
<g style="fill:rgb(0%,0%,0%);fill-opacity:1;">
  <use xlink:href="#glyph0-4" x="128.19" y="50.914"/>
  <use xlink:href="#glyph0-5" x="132.807098" y="50.914"/>
  <use xlink:href="#glyph0-6" x="138.660364" y="50.914"/>
  <use xlink:href="#glyph0-7" x="145.163993" y="50.914"/>
  <use xlink:href="#glyph0-8" x="149.716533" y="50.914"/>
  <use xlink:href="#glyph0-9" x="154.919436" y="50.914"/>
</g>
<path style="fill-rule:nonzero;fill:rgb(100%,50%,50%);fill-opacity:1;stroke-width:0.3985;stroke-linecap:butt;stroke-linejoin:miter;stroke:rgb(0%,0%,0%);stroke-opacity:1;stroke-miterlimit:10;" d="M -145.988031 12.754437 L -137.480219 12.754437 L -137.480219 21.258344 L -145.988031 21.258344 Z M -145.988031 12.754437 " transform="matrix(1,0,0,-1,310.406,82.356)"/>
<g style="fill:rgb(0%,0%,0%);fill-opacity:1;">
  <use xlink:href="#glyph0-3" x="137.685" y="67.862"/>
</g>
<g style="fill:rgb(0%,0%,0%);fill-opacity:1;">
  <use xlink:href="#glyph0-10" x="141.91475" y="67.862"/>
  <use xlink:href="#glyph0-11" x="148.093197" y="67.862"/>
</g>
<g style="fill:rgb(0%,0%,0%);fill-opacity:1;">
  <use xlink:href="#glyph0-9" x="154.919616" y="67.862"/>
</g>
<path style="fill:none;stroke-width:0.3985;stroke-linecap:butt;stroke-linejoin:miter;stroke:rgb(0%,0%,0%);stroke-opacity:1;stroke-miterlimit:10;" d="M -190.222406 -12.151813 L -116.37475 -12.151813 L -116.37475 44.590375 L -190.222406 44.590375 Z M -190.222406 -12.151813 " transform="matrix(1,0,0,-1,310.406,82.356)"/>
<g style="fill:rgb(0%,0%,0%);fill-opacity:1;">
  <use xlink:href="#glyph1-1" x="93.332" y="31.033"/>
  <use xlink:href="#glyph1-2" x="99.484146" y="31.033"/>
  <use xlink:href="#glyph1-3" x="105.636292" y="31.033"/>
  <use xlink:href="#glyph1-4" x="111.788438" y="31.033"/>
  <use xlink:href="#glyph1-1" x="117.940584" y="31.033"/>
  <use xlink:href="#glyph1-5" x="124.09273" y="31.033"/>
  <use xlink:href="#glyph1-1" x="130.244876" y="31.033"/>
  <use xlink:href="#glyph1-6" x="136.397021" y="31.033"/>
  <use xlink:href="#glyph1-7" x="142.549167" y="31.033"/>
  <use xlink:href="#glyph1-6" x="148.701313" y="31.033"/>
  <use xlink:href="#glyph1-8" x="154.853459" y="31.033"/>
  <use xlink:href="#glyph1-9" x="161.005605" y="31.033"/>
  <use xlink:href="#glyph1-7" x="167.157751" y="31.033"/>
  <use xlink:href="#glyph1-10" x="173.309897" y="31.033"/>
  <use xlink:href="#glyph1-2" x="179.462043" y="31.033"/>
</g>
<path style="fill:none;stroke-width:0.398;stroke-linecap:butt;stroke-linejoin:miter;stroke:rgb(0%,0%,0%);stroke-opacity:1;stroke-miterlimit:10;" d="M -0.00134375 0.00096875 L 3.690063 0.00096875 " transform="matrix(1,0,0,-1,186.349,30.833)"/>
<g style="fill:rgb(0%,0%,0%);fill-opacity:1;">
  <use xlink:href="#glyph1-3" x="190.04" y="31.033"/>
  <use xlink:href="#glyph1-11" x="196.192146" y="31.033"/>
  <use xlink:href="#glyph1-3" x="202.344292" y="31.033"/>
  <use xlink:href="#glyph1-6" x="208.496438" y="31.033"/>
  <use xlink:href="#glyph1-12" x="214.648584" y="31.033"/>
  <use xlink:href="#glyph1-2" x="220.80073" y="31.033"/>
</g>
<g style="fill:rgb(0%,0%,0%);fill-opacity:1;">
  <use xlink:href="#glyph0-16" x="102.663" y="12.204"/>
</g>
<g style="fill:rgb(0%,0%,0%);fill-opacity:1;">
  <use xlink:href="#glyph0-17" x="110.955127" y="12.204"/>
  <use xlink:href="#glyph0-18" x="120.060207" y="12.204"/>
</g>
<g style="fill:rgb(0%,0%,0%);fill-opacity:1;">
  <use xlink:href="#glyph0-3" x="130.461231" y="12.204"/>
  <use xlink:href="#glyph0-5" x="135.013771" y="12.204"/>
  <use xlink:href="#glyph0-11" x="140.867037" y="12.204"/>
  <use xlink:href="#glyph0-19" x="147.370666" y="12.204"/>
  <use xlink:href="#glyph0-8" x="150.62248" y="12.204"/>
</g>
<g style="fill:rgb(0%,0%,0%);fill-opacity:1;">
  <use xlink:href="#glyph0-4" x="159.722779" y="12.204"/>
  <use xlink:href="#glyph0-6" x="164.339877" y="12.204"/>
  <use xlink:href="#glyph0-13" x="170.843506" y="12.204"/>
  <use xlink:href="#glyph0-4" x="177.347134" y="12.204"/>
  <use xlink:href="#glyph0-8" x="181.964233" y="12.204"/>
  <use xlink:href="#glyph0-7" x="187.167136" y="12.204"/>
  <use xlink:href="#glyph0-19" x="191.719676" y="12.204"/>
  <use xlink:href="#glyph0-13" x="194.97149" y="12.204"/>
</g>
<g style="fill:rgb(0%,0%,0%);fill-opacity:1;">
  <use xlink:href="#glyph0-9" x="201.809865" y="12.204"/>
  <use xlink:href="#glyph0-7" x="207.012768" y="12.204"/>
</g>
<path style="fill:none;stroke-width:0.3985;stroke-linecap:butt;stroke-linejoin:miter;stroke:rgb(0%,0%,0%);stroke-opacity:1;stroke-miterlimit:10;" d="M -116.175531 16.219281 L -52.273187 16.219281 " transform="matrix(1,0,0,-1,310.406,82.356)"/>
<path style=" stroke:none;fill-rule:nonzero;fill:rgb(0%,0%,0%);fill-opacity:1;" d="M 261.71875 66.136719 C 260.65625 65.9375 258.929688 65.339844 257.734375 64.640625 L 257.734375 67.632812 C 258.929688 66.933594 260.65625 66.335938 261.71875 66.136719 "/>
</g>
</svg>
