<?xml version="1.0" encoding="UTF-8"?>
<svg xmlns="http://www.w3.org/2000/svg" xmlns:xlink="http://www.w3.org/1999/xlink" width="406.452pt" height="149.934pt" viewBox="0 0 406.452 149.934" version="1.1">
<defs>
<g>
<symbol overflow="visible" id="glyph0-0">
<path style="stroke:none;" d=""/>
</symbol>
<symbol overflow="visible" id="glyph0-1">
<path style="stroke:none;" d="M 2.078125 -7.359375 C 2.078125 -7.671875 1.828125 -7.953125 1.5 -7.953125 C 1.1875 -7.953125 0.921875 -7.703125 0.921875 -7.375 C 0.921875 -7.015625 1.203125 -6.796875 1.5 -6.796875 C 1.859375 -6.796875 2.078125 -7.09375 2.078125 -7.359375 Z M 0.4375 -5.140625 L 0.4375 -4.796875 C 1.1875 -4.796875 1.296875 -4.71875 1.296875 -4.140625 L 1.296875 -0.890625 C 1.296875 -0.34375 1.171875 -0.34375 0.390625 -0.34375 L 0.390625 0 C 0.734375 -0.03125 1.296875 -0.03125 1.65625 -0.03125 C 1.78125 -0.03125 2.46875 -0.03125 2.875 0 L 2.875 -0.34375 C 2.109375 -0.34375 2.0625 -0.40625 2.0625 -0.875 L 2.0625 -5.265625 Z M 0.4375 -5.140625 "/>
</symbol>
<symbol overflow="visible" id="glyph0-2">
<path style="stroke:none;" d="M 5.3125 -2.90625 C 5.3125 -4.015625 5.3125 -4.34375 5.046875 -4.734375 C 4.703125 -5.203125 4.140625 -5.265625 3.734375 -5.265625 C 2.5625 -5.265625 2.109375 -4.28125 2.015625 -4.046875 L 2.015625 -5.265625 L 0.375 -5.140625 L 0.375 -4.796875 C 1.1875 -4.796875 1.296875 -4.703125 1.296875 -4.125 L 1.296875 -0.890625 C 1.296875 -0.34375 1.15625 -0.34375 0.375 -0.34375 L 0.375 0 C 0.6875 -0.03125 1.34375 -0.03125 1.671875 -0.03125 C 2.015625 -0.03125 2.671875 -0.03125 2.96875 0 L 2.96875 -0.34375 C 2.21875 -0.34375 2.0625 -0.34375 2.0625 -0.890625 L 2.0625 -3.109375 C 2.0625 -4.359375 2.890625 -5.03125 3.640625 -5.03125 C 4.375 -5.03125 4.546875 -4.421875 4.546875 -3.6875 L 4.546875 -0.890625 C 4.546875 -0.34375 4.40625 -0.34375 3.640625 -0.34375 L 3.640625 0 C 3.9375 -0.03125 4.59375 -0.03125 4.921875 -0.03125 C 5.265625 -0.03125 5.921875 -0.03125 6.234375 0 L 6.234375 -0.34375 C 5.625 -0.34375 5.328125 -0.34375 5.3125 -0.703125 Z M 5.3125 -2.90625 "/>
</symbol>
<symbol overflow="visible" id="glyph0-3">
<path style="stroke:none;" d="M 2.015625 -4.8125 L 3.6875 -4.8125 L 3.6875 -5.15625 L 2.015625 -5.15625 L 2.015625 -7.34375 L 1.75 -7.34375 C 1.734375 -6.234375 1.296875 -5.078125 0.21875 -5.046875 L 0.21875 -4.8125 L 1.234375 -4.8125 L 1.234375 -1.484375 C 1.234375 -0.15625 2.109375 0.125 2.75 0.125 C 3.5 0.125 3.890625 -0.625 3.890625 -1.484375 L 3.890625 -2.15625 L 3.640625 -2.15625 L 3.640625 -1.5 C 3.640625 -0.640625 3.28125 -0.140625 2.828125 -0.140625 C 2.015625 -0.140625 2.015625 -1.25 2.015625 -1.453125 Z M 2.015625 -4.8125 "/>
</symbol>
<symbol overflow="visible" id="glyph0-4">
<path style="stroke:none;" d="M 4.328125 -4.421875 C 4.1875 -4.421875 3.734375 -4.421875 3.734375 -3.9375 C 3.734375 -3.640625 3.9375 -3.4375 4.234375 -3.4375 C 4.5 -3.4375 4.734375 -3.609375 4.734375 -3.953125 C 4.734375 -4.75 3.890625 -5.328125 2.921875 -5.328125 C 1.53125 -5.328125 0.421875 -4.09375 0.421875 -2.578125 C 0.421875 -1.046875 1.5625 0.125 2.921875 0.125 C 4.5 0.125 4.859375 -1.3125 4.859375 -1.421875 C 4.859375 -1.53125 4.765625 -1.53125 4.734375 -1.53125 C 4.625 -1.53125 4.609375 -1.5 4.578125 -1.34375 C 4.3125 -0.5 3.671875 -0.140625 3.03125 -0.140625 C 2.296875 -0.140625 1.328125 -0.78125 1.328125 -2.59375 C 1.328125 -4.578125 2.34375 -5.0625 2.9375 -5.0625 C 3.390625 -5.0625 4.046875 -4.890625 4.328125 -4.421875 Z M 4.328125 -4.421875 "/>
</symbol>
<symbol overflow="visible" id="glyph0-5">
<path style="stroke:none;" d="M 5.484375 -2.5625 C 5.484375 -4.09375 4.3125 -5.328125 2.921875 -5.328125 C 1.5 -5.328125 0.359375 -4.0625 0.359375 -2.5625 C 0.359375 -1.03125 1.546875 0.125 2.921875 0.125 C 4.328125 0.125 5.484375 -1.046875 5.484375 -2.5625 Z M 2.921875 -0.140625 C 2.484375 -0.140625 1.953125 -0.328125 1.609375 -0.921875 C 1.28125 -1.453125 1.265625 -2.15625 1.265625 -2.671875 C 1.265625 -3.125 1.265625 -3.84375 1.640625 -4.390625 C 1.96875 -4.90625 2.5 -5.09375 2.921875 -5.09375 C 3.375 -5.09375 3.890625 -4.875 4.203125 -4.40625 C 4.578125 -3.859375 4.578125 -3.109375 4.578125 -2.671875 C 4.578125 -2.25 4.578125 -1.5 4.265625 -0.9375 C 3.9375 -0.375 3.375 -0.140625 2.921875 -0.140625 Z M 2.921875 -0.140625 "/>
</symbol>
<symbol overflow="visible" id="glyph0-6">
<path style="stroke:none;" d="M 4.578125 -2.765625 C 4.84375 -2.765625 4.859375 -2.765625 4.859375 -3 C 4.859375 -4.203125 4.21875 -5.328125 2.765625 -5.328125 C 1.40625 -5.328125 0.359375 -4.09375 0.359375 -2.625 C 0.359375 -1.046875 1.578125 0.125 2.90625 0.125 C 4.328125 0.125 4.859375 -1.171875 4.859375 -1.421875 C 4.859375 -1.5 4.8125 -1.546875 4.734375 -1.546875 C 4.640625 -1.546875 4.609375 -1.484375 4.59375 -1.421875 C 4.28125 -0.421875 3.484375 -0.140625 2.96875 -0.140625 C 2.46875 -0.140625 1.265625 -0.484375 1.265625 -2.546875 L 1.265625 -2.765625 Z M 1.28125 -3 C 1.375 -4.875 2.421875 -5.09375 2.765625 -5.09375 C 4.046875 -5.09375 4.109375 -3.40625 4.125 -3 Z M 1.28125 -3 "/>
</symbol>
<symbol overflow="visible" id="glyph0-7">
<path style="stroke:none;" d="M 3.578125 -8.15625 L 3.578125 -7.8125 C 4.40625 -7.8125 4.5 -7.734375 4.5 -7.140625 L 4.5 -4.5 C 4.25 -4.859375 3.734375 -5.265625 3 -5.265625 C 1.609375 -5.265625 0.421875 -4.09375 0.421875 -2.5625 C 0.421875 -1.046875 1.546875 0.125 2.875 0.125 C 3.78125 0.125 4.296875 -0.484375 4.46875 -0.703125 L 4.46875 0.125 L 6.15625 0 L 6.15625 -0.34375 C 5.34375 -0.34375 5.25 -0.4375 5.25 -1.015625 L 5.25 -8.296875 Z M 4.46875 -1.40625 C 4.46875 -1.1875 4.46875 -1.140625 4.296875 -0.890625 C 4.015625 -0.46875 3.53125 -0.125 2.921875 -0.125 C 2.625 -0.125 1.328125 -0.234375 1.328125 -2.5625 C 1.328125 -3.421875 1.46875 -3.890625 1.734375 -4.296875 C 1.96875 -4.65625 2.453125 -5.03125 3.046875 -5.03125 C 3.796875 -5.03125 4.203125 -4.5 4.328125 -4.296875 C 4.46875 -4.09375 4.46875 -4.078125 4.46875 -3.859375 Z M 4.46875 -1.40625 "/>
</symbol>
<symbol overflow="visible" id="glyph0-8">
<path style="stroke:none;" d="M 2 -2.78125 C 2 -3.9375 2.46875 -5.03125 3.390625 -5.03125 C 3.484375 -5.03125 3.515625 -5.03125 3.5625 -5.015625 C 3.46875 -4.96875 3.28125 -4.90625 3.28125 -4.578125 C 3.28125 -4.234375 3.546875 -4.09375 3.734375 -4.09375 C 3.984375 -4.09375 4.21875 -4.25 4.21875 -4.578125 C 4.21875 -4.9375 3.890625 -5.265625 3.375 -5.265625 C 2.359375 -5.265625 2.015625 -4.171875 1.953125 -3.9375 L 1.9375 -3.9375 L 1.9375 -5.265625 L 0.328125 -5.140625 L 0.328125 -4.796875 C 1.140625 -4.796875 1.25 -4.703125 1.25 -4.125 L 1.25 -0.890625 C 1.25 -0.34375 1.109375 -0.34375 0.328125 -0.34375 L 0.328125 0 C 0.671875 -0.03125 1.328125 -0.03125 1.6875 -0.03125 C 2.015625 -0.03125 2.859375 -0.03125 3.125 0 L 3.125 -0.34375 L 2.890625 -0.34375 C 2.015625 -0.34375 2 -0.484375 2 -0.90625 Z M 2 -2.78125 "/>
</symbol>
<symbol overflow="visible" id="glyph0-9">
<path style="stroke:none;" d="M 4.609375 -3.1875 C 4.609375 -3.84375 4.609375 -4.3125 4.09375 -4.78125 C 3.671875 -5.15625 3.125 -5.328125 2.609375 -5.328125 C 1.625 -5.328125 0.875 -4.6875 0.875 -3.90625 C 0.875 -3.5625 1.09375 -3.390625 1.375 -3.390625 C 1.65625 -3.390625 1.859375 -3.59375 1.859375 -3.890625 C 1.859375 -4.375 1.4375 -4.375 1.25 -4.375 C 1.53125 -4.875 2.109375 -5.09375 2.578125 -5.09375 C 3.125 -5.09375 3.84375 -4.640625 3.84375 -3.5625 L 3.84375 -3.078125 C 1.4375 -3.046875 0.53125 -2.046875 0.53125 -1.125 C 0.53125 -0.171875 1.625 0.125 2.359375 0.125 C 3.140625 0.125 3.6875 -0.359375 3.90625 -0.9375 C 3.953125 -0.375 4.328125 0.0625 4.84375 0.0625 C 5.09375 0.0625 5.78125 -0.109375 5.78125 -1.0625 L 5.78125 -1.734375 L 5.515625 -1.734375 L 5.515625 -1.0625 C 5.515625 -0.375 5.234375 -0.28125 5.0625 -0.28125 C 4.609375 -0.28125 4.609375 -0.921875 4.609375 -1.09375 Z M 3.84375 -1.6875 C 3.84375 -0.515625 2.96875 -0.125 2.453125 -0.125 C 1.859375 -0.125 1.375 -0.546875 1.375 -1.125 C 1.375 -2.703125 3.40625 -2.84375 3.84375 -2.875 Z M 3.84375 -1.6875 "/>
</symbol>
<symbol overflow="visible" id="glyph1-0">
<path style="stroke:none;" d=""/>
</symbol>
<symbol overflow="visible" id="glyph1-1">
<path style="stroke:none;" d="M 2.578125 -4.453125 L 4.515625 -4.453125 C 4.6875 -4.453125 5 -4.453125 5 -4.8125 C 5 -5.15625 4.6875 -5.15625 4.515625 -5.15625 L 2.578125 -5.15625 L 2.578125 -6.125 C 2.578125 -6.34375 2.578125 -6.625 2.203125 -6.625 C 1.8125 -6.625 1.8125 -6.34375 1.8125 -6.125 L 1.8125 -5.15625 L 0.78125 -5.15625 C 0.625 -5.15625 0.296875 -5.15625 0.296875 -4.8125 C 0.296875 -4.453125 0.609375 -4.453125 0.78125 -4.453125 L 1.8125 -4.453125 L 1.8125 -1.453125 C 1.8125 -0.328125 2.5625 0.078125 3.4375 0.078125 C 4.078125 0.078125 5.265625 -0.25 5.265625 -1.46875 C 5.265625 -1.703125 5.265625 -1.96875 4.859375 -1.96875 C 4.484375 -1.96875 4.484375 -1.703125 4.484375 -1.453125 C 4.46875 -0.734375 3.796875 -0.625 3.515625 -0.625 C 2.578125 -0.625 2.578125 -1.21875 2.578125 -1.5 Z M 2.578125 -4.453125 "/>
</symbol>
<symbol overflow="visible" id="glyph1-2">
<path style="stroke:none;" d="M 5 -3.5 C 5 -4.671875 4.453125 -5.21875 3.46875 -5.21875 C 2.65625 -5.21875 2.125 -4.765625 1.921875 -4.546875 L 1.921875 -6.8125 C 1.921875 -7.1875 1.859375 -7.296875 1.453125 -7.296875 L 0.65625 -7.296875 C 0.484375 -7.296875 0.171875 -7.296875 0.171875 -6.953125 C 0.171875 -6.609375 0.484375 -6.609375 0.65625 -6.609375 L 1.140625 -6.609375 L 1.140625 -0.6875 L 0.65625 -0.6875 C 0.484375 -0.6875 0.171875 -0.6875 0.171875 -0.34375 C 0.171875 0 0.484375 0 0.65625 0 L 2.421875 0 C 2.578125 0 2.890625 0 2.890625 -0.34375 C 2.890625 -0.6875 2.578125 -0.6875 2.421875 -0.6875 L 1.921875 -0.6875 L 1.921875 -2.859375 C 1.921875 -4.015625 2.734375 -4.53125 3.375 -4.53125 C 4.078125 -4.53125 4.21875 -4.140625 4.21875 -3.453125 L 4.21875 -0.6875 L 3.734375 -0.6875 C 3.5625 -0.6875 3.25 -0.6875 3.25 -0.34375 C 3.25 0 3.5625 0 3.734375 0 L 5.484375 0 C 5.65625 0 5.96875 0 5.96875 -0.34375 C 5.96875 -0.6875 5.65625 -0.6875 5.484375 -0.6875 L 5 -0.6875 Z M 5 -3.5 "/>
</symbol>
<symbol overflow="visible" id="glyph1-3">
<path style="stroke:none;" d="M 5.0625 -4.453125 L 5.375 -4.453125 C 5.546875 -4.453125 5.875 -4.453125 5.875 -4.8125 C 5.875 -5.15625 5.546875 -5.15625 5.375 -5.15625 L 4.0625 -5.15625 C 3.890625 -5.15625 3.578125 -5.15625 3.578125 -4.8125 C 3.578125 -4.453125 3.890625 -4.453125 4.0625 -4.453125 L 4.359375 -4.453125 C 4.03125 -3.484375 3.34375 -1.484375 3.171875 -0.796875 C 3.109375 -1.0625 3.0625 -1.1875 2.9375 -1.515625 L 1.828125 -4.453125 L 2.109375 -4.453125 C 2.265625 -4.453125 2.59375 -4.453125 2.59375 -4.8125 C 2.59375 -5.15625 2.265625 -5.15625 2.109375 -5.15625 L 0.78125 -5.15625 C 0.625 -5.15625 0.296875 -5.15625 0.296875 -4.8125 C 0.296875 -4.453125 0.625 -4.453125 0.78125 -4.453125 L 1.109375 -4.453125 L 2.78125 -0.15625 C 2.828125 -0.03125 2.828125 -0.015625 2.828125 0 C 2.828125 0.03125 2.515625 1.0625 2.34375 1.40625 C 2.265625 1.515625 1.96875 2.078125 1.40625 2.015625 C 1.40625 1.984375 1.453125 1.90625 1.453125 1.78125 C 1.453125 1.5 1.25 1.3125 0.984375 1.3125 C 0.6875 1.3125 0.5 1.515625 0.5 1.796875 C 0.5 2.25 0.890625 2.71875 1.484375 2.71875 C 2.640625 2.71875 3.15625 1.1875 3.1875 1.09375 Z M 5.0625 -4.453125 "/>
</symbol>
<symbol overflow="visible" id="glyph1-4">
<path style="stroke:none;" d="M 5.421875 -3.625 C 5.421875 -3.890625 5.421875 -5.21875 4.359375 -5.21875 C 3.9375 -5.21875 3.53125 -5.03125 3.21875 -4.59375 C 3.140625 -4.765625 2.875 -5.21875 2.3125 -5.21875 C 1.765625 -5.21875 1.40625 -4.875 1.296875 -4.765625 C 1.296875 -5.15625 1.046875 -5.15625 0.828125 -5.15625 L 0.46875 -5.15625 C 0.296875 -5.15625 -0.015625 -5.15625 -0.015625 -4.8125 C -0.015625 -4.453125 0.265625 -4.453125 0.640625 -4.453125 L 0.640625 -0.6875 C 0.25 -0.6875 -0.015625 -0.6875 -0.015625 -0.34375 C -0.015625 0 0.296875 0 0.46875 0 L 1.46875 0 C 1.640625 0 1.953125 0 1.953125 -0.34375 C 1.953125 -0.6875 1.671875 -0.6875 1.296875 -0.6875 L 1.296875 -2.890625 C 1.296875 -3.890625 1.734375 -4.53125 2.265625 -4.53125 C 2.59375 -4.53125 2.6875 -4.109375 2.6875 -3.546875 L 2.6875 -0.6875 C 2.484375 -0.6875 2.15625 -0.6875 2.15625 -0.34375 C 2.15625 0 2.484375 0 2.65625 0 L 3.53125 0 C 3.6875 0 4 0 4 -0.34375 C 4 -0.6875 3.734375 -0.6875 3.359375 -0.6875 L 3.359375 -2.890625 C 3.359375 -3.890625 3.796875 -4.53125 4.3125 -4.53125 C 4.65625 -4.53125 4.75 -4.109375 4.75 -3.546875 L 4.75 -0.6875 C 4.546875 -0.6875 4.21875 -0.6875 4.21875 -0.34375 C 4.21875 0 4.546875 0 4.703125 0 L 5.578125 0 C 5.75 0 6.0625 0 6.0625 -0.34375 C 6.0625 -0.6875 5.78125 -0.6875 5.421875 -0.6875 Z M 5.421875 -3.625 "/>
</symbol>
<symbol overflow="visible" id="glyph1-5">
<path style="stroke:none;" d="M 3.609375 -6.78125 C 3.609375 -7.078125 3.375 -7.3125 3.078125 -7.3125 C 2.765625 -7.3125 2.53125 -7.078125 2.53125 -6.78125 C 2.53125 -6.484375 2.765625 -6.234375 3.078125 -6.234375 C 3.375 -6.234375 3.609375 -6.484375 3.609375 -6.78125 Z M 1.546875 -5.15625 C 1.390625 -5.15625 1.078125 -5.15625 1.078125 -4.8125 C 1.078125 -4.453125 1.390625 -4.453125 1.546875 -4.453125 L 2.828125 -4.453125 L 2.828125 -0.6875 L 1.46875 -0.6875 C 1.296875 -0.6875 0.984375 -0.6875 0.984375 -0.34375 C 0.984375 0 1.296875 0 1.46875 0 L 4.796875 0 C 4.953125 0 5.265625 0 5.265625 -0.34375 C 5.265625 -0.6875 4.953125 -0.6875 4.796875 -0.6875 L 3.609375 -0.6875 L 3.609375 -4.65625 C 3.609375 -5.03125 3.53125 -5.15625 3.125 -5.15625 Z M 1.546875 -5.15625 "/>
</symbol>
<symbol overflow="visible" id="glyph1-6">
<path style="stroke:none;" d="M 5.453125 -2.578125 C 5.453125 -4.078125 4.359375 -5.265625 3.078125 -5.265625 C 1.78125 -5.265625 0.6875 -4.078125 0.6875 -2.578125 C 0.6875 -1.078125 1.796875 0.078125 3.078125 0.078125 C 4.34375 0.078125 5.453125 -1.078125 5.453125 -2.578125 Z M 3.078125 -0.625 C 2.21875 -0.625 1.46875 -1.53125 1.46875 -2.671875 C 1.46875 -3.78125 2.234375 -4.5625 3.078125 -4.5625 C 3.90625 -4.5625 4.671875 -3.78125 4.671875 -2.671875 C 4.671875 -1.515625 3.9375 -0.625 3.078125 -0.625 Z M 3.078125 -0.625 "/>
</symbol>
<symbol overflow="visible" id="glyph1-7">
<path style="stroke:none;" d="M 5.234375 -5.859375 C 5.359375 -5.9375 5.484375 -6.015625 5.484375 -6.234375 C 5.484375 -6.484375 5.265625 -6.625 5.09375 -6.625 L 5.0625 -6.609375 C 4.96875 -6.59375 4.953125 -6.59375 4.8125 -6.5 L 0.890625 -4.015625 C 0.734375 -3.9375 0.65625 -3.796875 0.65625 -3.65625 C 0.65625 -3.4375 0.78125 -3.359375 0.890625 -3.296875 L 4.8125 -0.796875 C 4.890625 -0.75 4.984375 -0.6875 5.09375 -0.6875 C 5.265625 -0.6875 5.484375 -0.828125 5.484375 -1.078125 C 5.484375 -1.21875 5.421875 -1.34375 5.28125 -1.421875 L 1.765625 -3.640625 Z M 5.234375 -5.859375 "/>
</symbol>
<symbol overflow="visible" id="glyph1-8">
<path style="stroke:none;" d="M 5 -6.8125 C 5 -7.1875 4.921875 -7.296875 4.515625 -7.296875 L 3.734375 -7.296875 C 3.5625 -7.296875 3.25 -7.296875 3.25 -6.953125 C 3.25 -6.609375 3.5625 -6.609375 3.734375 -6.609375 L 4.21875 -6.609375 L 4.21875 -4.625 C 4.03125 -4.8125 3.53125 -5.21875 2.8125 -5.21875 C 1.546875 -5.21875 0.4375 -4.078125 0.4375 -2.5625 C 0.4375 -1.09375 1.46875 0.078125 2.703125 0.078125 C 3.484375 0.078125 4 -0.390625 4.21875 -0.65625 C 4.21875 -0.15625 4.21875 0 4.703125 0 L 5.484375 0 C 5.65625 0 5.96875 0 5.96875 -0.34375 C 5.96875 -0.6875 5.65625 -0.6875 5.484375 -0.6875 L 5 -0.6875 Z M 4.21875 -2.265625 C 4.21875 -1.609375 3.671875 -0.625 2.765625 -0.625 C 1.90625 -0.625 1.21875 -1.5 1.21875 -2.5625 C 1.21875 -3.71875 2.03125 -4.53125 2.875 -4.53125 C 3.65625 -4.53125 4.21875 -3.828125 4.21875 -3.203125 Z M 4.21875 -2.265625 "/>
</symbol>
<symbol overflow="visible" id="glyph1-9">
<path style="stroke:none;" d="M 3.640625 -6.953125 C 3.640625 -7.140625 3.640625 -7.453125 3.28125 -7.453125 C 3.078125 -7.453125 3.015625 -7.34375 2.9375 -7.1875 C 2.71875 -6.671875 2.3125 -6.03125 1.6875 -5.984375 C 1.5 -5.96875 1.25 -5.953125 1.25 -5.640625 C 1.25 -5.4375 1.375 -5.296875 1.640625 -5.296875 C 2.3125 -5.296875 2.828125 -5.796875 2.859375 -5.828125 L 2.859375 -0.6875 L 1.8125 -0.6875 C 1.640625 -0.6875 1.3125 -0.6875 1.3125 -0.34375 C 1.3125 0 1.640625 0 1.8125 0 L 4.6875 0 C 4.859375 0 5.171875 0 5.171875 -0.34375 C 5.171875 -0.6875 4.859375 -0.6875 4.6875 -0.6875 L 3.640625 -0.6875 Z M 3.640625 -6.953125 "/>
</symbol>
<symbol overflow="visible" id="glyph1-10">
<path style="stroke:none;" d="M 5.265625 -3.28125 C 5.40625 -3.375 5.484375 -3.5 5.484375 -3.640625 C 5.484375 -3.859375 5.359375 -3.9375 5.265625 -4 L 1.34375 -6.5 C 1.25 -6.546875 1.15625 -6.625 1.046875 -6.625 C 0.875 -6.625 0.65625 -6.484375 0.65625 -6.234375 C 0.65625 -6.015625 0.78125 -5.9375 0.90625 -5.859375 L 4.375 -3.65625 L 0.90625 -1.453125 C 0.78125 -1.359375 0.65625 -1.296875 0.65625 -1.078125 C 0.65625 -0.828125 0.875 -0.6875 1.046875 -0.6875 L 1.078125 -0.6875 C 1.171875 -0.703125 1.1875 -0.703125 1.328125 -0.796875 Z M 5.265625 -3.28125 "/>
</symbol>
<symbol overflow="visible" id="glyph1-11">
<path style="stroke:none;" d="M 4.15625 -2.625 C 4.328125 -2.765625 5.53125 -3.796875 5.53125 -5.125 C 5.53125 -6.484375 4.40625 -7.453125 2.921875 -7.453125 C 1.53125 -7.453125 0.609375 -6.40625 0.609375 -5.40625 C 0.609375 -4.90625 1.03125 -4.859375 1.09375 -4.859375 C 1.3125 -4.859375 1.578125 -5.03125 1.578125 -5.359375 C 1.578125 -5.578125 1.5 -5.65625 1.4375 -5.703125 C 1.609375 -6.328125 2.15625 -6.75 2.84375 -6.75 C 3.859375 -6.75 4.75 -6.171875 4.75 -5.125 C 4.75 -4.203125 4.046875 -3.484375 3.40625 -2.921875 L 0.78125 -0.640625 C 0.640625 -0.53125 0.609375 -0.484375 0.609375 -0.34375 C 0.609375 0 0.9375 0 1.09375 0 L 5.265625 0 C 5.53125 -0.078125 5.53125 -0.3125 5.53125 -0.484375 L 5.53125 -0.734375 C 5.53125 -0.953125 5.53125 -1.234375 5.15625 -1.234375 C 4.75 -1.234375 4.75 -0.984375 4.75 -0.6875 L 1.875 -0.6875 Z M 4.15625 -2.625 "/>
</symbol>
<symbol overflow="visible" id="glyph1-12">
<path style="stroke:none;" d="M 4.953125 -3.390625 C 4.953125 -4.296875 4.265625 -5.265625 2.65625 -5.265625 C 2.15625 -5.265625 0.984375 -5.265625 0.984375 -4.4375 C 0.984375 -4.109375 1.21875 -3.9375 1.484375 -3.9375 C 1.546875 -3.9375 1.953125 -3.953125 1.953125 -4.453125 C 1.953125 -4.515625 1.96875 -4.53125 2.21875 -4.546875 C 2.359375 -4.5625 2.515625 -4.5625 2.671875 -4.5625 C 2.9375 -4.5625 3.34375 -4.5625 3.734375 -4.265625 C 4.171875 -3.9375 4.171875 -3.59375 4.171875 -3.25 C 3.46875 -3.234375 2.765625 -3.171875 2.03125 -2.9375 C 1.4375 -2.734375 0.671875 -2.3125 0.671875 -1.5 C 0.671875 -0.640625 1.421875 0.078125 2.53125 0.078125 C 2.921875 0.078125 3.65625 0.015625 4.28125 -0.421875 C 4.515625 -0.03125 5.109375 0 5.5625 0 C 5.859375 0 6.140625 0 6.140625 -0.34375 C 6.140625 -0.6875 5.828125 -0.6875 5.671875 -0.6875 C 5.359375 -0.6875 5.109375 -0.71875 4.953125 -0.78125 Z M 4.171875 -1.578125 C 4.171875 -1.296875 4.171875 -1.046875 3.6875 -0.828125 C 3.265625 -0.625 2.703125 -0.625 2.671875 -0.625 C 1.953125 -0.625 1.453125 -1 1.453125 -1.5 C 1.453125 -2.203125 2.71875 -2.609375 4.171875 -2.609375 Z M 4.171875 -1.578125 "/>
</symbol>
<symbol overflow="visible" id="glyph1-13">
<path style="stroke:none;" d="M 5.015625 -4.8125 C 5.015625 -5 5.015625 -5.265625 4.6875 -5.265625 C 4.40625 -5.265625 4.328125 -4.984375 4.328125 -4.96875 C 3.84375 -5.265625 3.296875 -5.265625 3.0625 -5.265625 C 1.109375 -5.265625 0.84375 -4.265625 0.84375 -3.859375 C 0.84375 -3.375 1.140625 -3.03125 1.546875 -2.8125 C 1.921875 -2.59375 2.265625 -2.53125 3.25 -2.375 C 3.71875 -2.296875 4.671875 -2.140625 4.671875 -1.484375 C 4.671875 -1.046875 4.265625 -0.625 3.15625 -0.625 C 2.390625 -0.625 1.890625 -0.921875 1.640625 -1.78125 C 1.578125 -1.953125 1.546875 -2.078125 1.25 -2.078125 C 0.84375 -2.078125 0.84375 -1.859375 0.84375 -1.609375 L 0.84375 -0.375 C 0.84375 -0.1875 0.84375 0.078125 1.1875 0.078125 C 1.328125 0.078125 1.4375 0.078125 1.609375 -0.421875 C 2.15625 0.03125 2.78125 0.078125 3.15625 0.078125 C 5.359375 0.078125 5.359375 -1.359375 5.359375 -1.484375 C 5.359375 -2.71875 3.890625 -2.96875 3.3125 -3.0625 C 2.265625 -3.234375 1.546875 -3.359375 1.546875 -3.859375 C 1.546875 -4.1875 1.90625 -4.5625 3.03125 -4.5625 C 4.171875 -4.5625 4.21875 -4.03125 4.25 -3.71875 C 4.265625 -3.484375 4.484375 -3.4375 4.625 -3.4375 C 5.015625 -3.4375 5.015625 -3.65625 5.015625 -3.890625 Z M 5.015625 -4.8125 "/>
</symbol>
<symbol overflow="visible" id="glyph1-14">
<path style="stroke:none;" d="M 4.96875 -2.296875 C 5.21875 -2.296875 5.453125 -2.296875 5.453125 -2.734375 C 5.453125 -4.140625 4.65625 -5.265625 3.171875 -5.265625 C 1.78125 -5.265625 0.671875 -4.0625 0.671875 -2.609375 C 0.671875 -1.09375 1.875 0.078125 3.34375 0.078125 C 4.890625 0.078125 5.453125 -0.984375 5.453125 -1.296875 C 5.453125 -1.375 5.421875 -1.640625 5.0625 -1.640625 C 4.828125 -1.640625 4.75 -1.546875 4.6875 -1.375 C 4.390625 -0.6875 3.609375 -0.625 3.375 -0.625 C 2.390625 -0.625 1.609375 -1.375 1.46875 -2.296875 Z M 1.484375 -2.953125 C 1.640625 -3.96875 2.421875 -4.5625 3.171875 -4.5625 C 4.359375 -4.5625 4.609375 -3.546875 4.65625 -2.953125 Z M 1.484375 -2.953125 "/>
</symbol>
<symbol overflow="visible" id="glyph1-15">
<path style="stroke:none;" d="M 1.921875 -6.8125 C 1.921875 -7.1875 1.859375 -7.296875 1.453125 -7.296875 L 0.65625 -7.296875 C 0.484375 -7.296875 0.171875 -7.296875 0.171875 -6.953125 C 0.171875 -6.609375 0.484375 -6.609375 0.65625 -6.609375 L 1.140625 -6.609375 L 1.140625 -0.484375 C 1.140625 -0.28125 1.140625 0 1.546875 0 C 1.921875 0 1.921875 -0.25 1.921875 -0.59375 C 2.21875 -0.28125 2.65625 0.078125 3.328125 0.078125 C 4.59375 0.078125 5.703125 -1.0625 5.703125 -2.578125 C 5.703125 -4.046875 4.703125 -5.21875 3.453125 -5.21875 C 2.578125 -5.21875 2.03125 -4.703125 1.921875 -4.578125 Z M 1.921875 -3.171875 C 1.921875 -3.859375 2.59375 -4.53125 3.375 -4.53125 C 4.234375 -4.53125 4.921875 -3.65625 4.921875 -2.578125 C 4.921875 -1.4375 4.109375 -0.625 3.265625 -0.625 C 2.359375 -0.625 1.921875 -1.640625 1.921875 -2.234375 Z M 1.921875 -3.171875 "/>
</symbol>
<symbol overflow="visible" id="glyph1-16">
<path style="stroke:none;" d="M 2.578125 -2.265625 C 2.578125 -3.6875 3.578125 -4.53125 4.609375 -4.53125 C 4.65625 -4.53125 4.734375 -4.53125 4.796875 -4.515625 C 4.828125 -4.09375 5.15625 -4.046875 5.25 -4.046875 C 5.515625 -4.046875 5.71875 -4.25 5.71875 -4.515625 C 5.71875 -5.03125 5.21875 -5.21875 4.609375 -5.21875 C 3.8125 -5.21875 3.125 -4.859375 2.578125 -4.203125 L 2.578125 -4.65625 C 2.578125 -5.03125 2.515625 -5.15625 2.109375 -5.15625 L 0.890625 -5.15625 C 0.734375 -5.15625 0.421875 -5.15625 0.421875 -4.8125 C 0.421875 -4.453125 0.734375 -4.453125 0.890625 -4.453125 L 1.8125 -4.453125 L 1.8125 -0.6875 L 0.890625 -0.6875 C 0.734375 -0.6875 0.421875 -0.6875 0.421875 -0.34375 C 0.421875 0 0.734375 0 0.890625 0 L 3.84375 0 C 4 0 4.3125 0 4.3125 -0.34375 C 4.3125 -0.6875 4 -0.6875 3.84375 -0.6875 L 2.578125 -0.6875 Z M 2.578125 -2.265625 "/>
</symbol>
<symbol overflow="visible" id="glyph1-17">
<path style="stroke:none;" d="M 5 -4.65625 C 5 -5.03125 4.921875 -5.15625 4.515625 -5.15625 L 3.734375 -5.15625 C 3.5625 -5.15625 3.25 -5.15625 3.25 -4.8125 C 3.25 -4.453125 3.5625 -4.453125 3.734375 -4.453125 L 4.21875 -4.453125 L 4.21875 -1.859375 C 4.21875 -0.890625 3.40625 -0.625 2.875 -0.625 C 1.921875 -0.625 1.921875 -1.046875 1.921875 -1.421875 L 1.921875 -4.65625 C 1.921875 -5.03125 1.859375 -5.15625 1.453125 -5.15625 L 0.65625 -5.15625 C 0.484375 -5.15625 0.171875 -5.15625 0.171875 -4.8125 C 0.171875 -4.453125 0.484375 -4.453125 0.65625 -4.453125 L 1.140625 -4.453125 L 1.140625 -1.359375 C 1.140625 -0.265625 1.859375 0.078125 2.78125 0.078125 C 3.515625 0.078125 3.96875 -0.234375 4.203125 -0.4375 C 4.203125 0 4.5 0 4.703125 0 L 5.484375 0 C 5.65625 0 5.96875 0 5.96875 -0.34375 C 5.96875 -0.6875 5.65625 -0.6875 5.484375 -0.6875 L 5 -0.6875 Z M 5 -4.65625 "/>
</symbol>
<symbol overflow="visible" id="glyph1-18">
<path style="stroke:none;" d="M 3.46875 -6.8125 C 3.46875 -7.1875 3.390625 -7.296875 2.984375 -7.296875 L 1.234375 -7.296875 C 1.0625 -7.296875 0.75 -7.296875 0.75 -6.953125 C 0.75 -6.609375 1.0625 -6.609375 1.234375 -6.609375 L 2.6875 -6.609375 L 2.6875 -0.6875 L 1.234375 -0.6875 C 1.0625 -0.6875 0.75 -0.6875 0.75 -0.34375 C 0.75 0 1.0625 0 1.234375 0 L 4.921875 0 C 5.09375 0 5.40625 0 5.40625 -0.34375 C 5.40625 -0.6875 5.09375 -0.6875 4.921875 -0.6875 L 3.46875 -0.6875 Z M 3.46875 -6.8125 "/>
</symbol>
<symbol overflow="visible" id="glyph1-19">
<path style="stroke:none;" d="M 5.0625 -4.453125 L 5.375 -4.453125 C 5.546875 -4.453125 5.875 -4.453125 5.875 -4.8125 C 5.875 -5.15625 5.546875 -5.15625 5.375 -5.15625 L 4.0625 -5.15625 C 3.890625 -5.15625 3.578125 -5.15625 3.578125 -4.8125 C 3.578125 -4.453125 3.890625 -4.453125 4.0625 -4.453125 L 4.359375 -4.453125 L 3.078125 -0.609375 L 1.78125 -4.453125 L 2.078125 -4.453125 C 2.25 -4.453125 2.5625 -4.453125 2.5625 -4.8125 C 2.5625 -5.15625 2.25 -5.15625 2.078125 -5.15625 L 0.765625 -5.15625 C 0.59375 -5.15625 0.28125 -5.15625 0.28125 -4.8125 C 0.28125 -4.453125 0.59375 -4.453125 0.765625 -4.453125 L 1.078125 -4.453125 L 2.453125 -0.34375 C 2.578125 0.0625 2.84375 0.0625 3.078125 0.0625 C 3.296875 0.0625 3.5625 0.0625 3.6875 -0.34375 Z M 5.0625 -4.453125 "/>
</symbol>
<symbol overflow="visible" id="glyph1-20">
<path style="stroke:none;" d="M 5.390625 -7.65625 C 5.421875 -7.734375 5.46875 -7.8125 5.46875 -7.90625 C 5.46875 -8.15625 5.265625 -8.296875 5.078125 -8.296875 C 4.828125 -8.296875 4.734375 -8.09375 4.671875 -7.96875 L 0.75 0.34375 C 0.71875 0.4375 0.6875 0.515625 0.6875 0.59375 C 0.6875 0.84375 0.890625 0.984375 1.0625 0.984375 C 1.3125 0.984375 1.40625 0.796875 1.46875 0.671875 Z M 5.390625 -7.65625 "/>
</symbol>
<symbol overflow="visible" id="glyph1-21">
<path style="stroke:none;" d="M 5 -3.5 C 5 -4.671875 4.453125 -5.21875 3.46875 -5.21875 C 2.65625 -5.21875 2.125 -4.765625 1.921875 -4.546875 C 1.921875 -4.984375 1.921875 -5.15625 1.453125 -5.15625 L 0.65625 -5.15625 C 0.484375 -5.15625 0.171875 -5.15625 0.171875 -4.8125 C 0.171875 -4.453125 0.484375 -4.453125 0.65625 -4.453125 L 1.140625 -4.453125 L 1.140625 -0.6875 L 0.65625 -0.6875 C 0.484375 -0.6875 0.171875 -0.6875 0.171875 -0.34375 C 0.171875 0 0.484375 0 0.65625 0 L 2.421875 0 C 2.578125 0 2.890625 0 2.890625 -0.34375 C 2.890625 -0.6875 2.578125 -0.6875 2.421875 -0.6875 L 1.921875 -0.6875 L 1.921875 -2.859375 C 1.921875 -4.015625 2.734375 -4.53125 3.375 -4.53125 C 4.078125 -4.53125 4.21875 -4.140625 4.21875 -3.453125 L 4.21875 -0.6875 L 3.734375 -0.6875 C 3.5625 -0.6875 3.25 -0.6875 3.25 -0.34375 C 3.25 0 3.5625 0 3.734375 0 L 5.484375 0 C 5.65625 0 5.96875 0 5.96875 -0.34375 C 5.96875 -0.6875 5.65625 -0.6875 5.484375 -0.6875 L 5 -0.6875 Z M 5 -3.5 "/>
</symbol>
<symbol overflow="visible" id="glyph1-22">
<path style="stroke:none;" d="M 2.421875 2.65625 C 2.578125 2.65625 2.890625 2.65625 2.890625 2.3125 C 2.890625 1.953125 2.578125 1.953125 2.421875 1.953125 L 1.921875 1.953125 L 1.921875 -0.59375 C 2.21875 -0.28125 2.65625 0.078125 3.328125 0.078125 C 4.59375 0.078125 5.703125 -1.0625 5.703125 -2.578125 C 5.703125 -4.046875 4.703125 -5.21875 3.453125 -5.21875 C 2.578125 -5.21875 2.03125 -4.703125 1.921875 -4.578125 C 1.921875 -4.96875 1.921875 -5.15625 1.453125 -5.15625 L 0.65625 -5.15625 C 0.484375 -5.15625 0.171875 -5.15625 0.171875 -4.8125 C 0.171875 -4.453125 0.484375 -4.453125 0.65625 -4.453125 L 1.140625 -4.453125 L 1.140625 1.953125 L 0.65625 1.953125 C 0.484375 1.953125 0.171875 1.953125 0.171875 2.3125 C 0.171875 2.65625 0.484375 2.65625 0.65625 2.65625 Z M 1.921875 -3.171875 C 1.921875 -3.859375 2.59375 -4.53125 3.375 -4.53125 C 4.234375 -4.53125 4.921875 -3.65625 4.921875 -2.578125 C 4.921875 -1.4375 4.109375 -0.625 3.265625 -0.625 C 2.359375 -0.625 1.921875 -1.640625 1.921875 -2.234375 Z M 1.921875 -3.171875 "/>
</symbol>
</g>
<clipPath id="clip1">
  <path d="M 355 63 L 406.453125 63 L 406.453125 73 L 355 73 Z M 355 63 "/>
</clipPath>
<clipPath id="clip2">
  <path d="M 355 112 L 406.453125 112 L 406.453125 123 L 355 123 Z M 355 112 "/>
</clipPath>
<clipPath id="clip3">
  <path d="M 0 0 L 406.453125 0 L 406.453125 149.933594 L 0 149.933594 Z M 0 0 "/>
</clipPath>
</defs>
<g id="surface1">
<path style="fill-rule:nonzero;fill:rgb(0%,0%,0%);fill-opacity:1;stroke-width:0.3985;stroke-linecap:butt;stroke-linejoin:miter;stroke:rgb(0%,0%,0%);stroke-opacity:1;stroke-miterlimit:10;" d="M 0.996344 0.0016875 C 0.996344 0.548562 0.551031 0.997781 0.00025 0.997781 C -0.550531 0.997781 -0.995844 0.548562 -0.995844 0.0016875 C -0.995844 -0.549094 -0.550531 -0.994406 0.00025 -0.994406 C 0.551031 -0.994406 0.996344 -0.549094 0.996344 0.0016875 Z M 0.996344 0.0016875 " transform="matrix(1,0,0,-1,139.031,32.447)"/>
<g style="fill:rgb(0%,0%,0%);fill-opacity:1;">
  <use xlink:href="#glyph0-1" x="117.371" y="36.415"/>
  <use xlink:href="#glyph0-2" x="120.622814" y="36.415"/>
  <use xlink:href="#glyph0-1" x="127.126443" y="36.415"/>
  <use xlink:href="#glyph0-3" x="130.378258" y="36.415"/>
</g>
<path style="fill-rule:nonzero;fill:rgb(0%,0%,0%);fill-opacity:1;stroke-width:0.3985;stroke-linecap:butt;stroke-linejoin:miter;stroke:rgb(0%,0%,0%);stroke-opacity:1;stroke-miterlimit:10;" d="M 0.996344 -28.345969 C 0.996344 -27.795188 0.551031 -27.349875 0.00025 -27.349875 C -0.550531 -27.349875 -0.995844 -27.795188 -0.995844 -28.345969 C -0.995844 -28.89675 -0.550531 -29.342063 0.00025 -29.342063 C 0.551031 -29.342063 0.996344 -28.89675 0.996344 -28.345969 Z M 0.996344 -28.345969 " transform="matrix(1,0,0,-1,139.031,32.447)"/>
<g style="fill:rgb(0%,0%,0%);fill-opacity:1;">
  <use xlink:href="#glyph0-4" x="8.202" y="63.617"/>
  <use xlink:href="#glyph0-5" x="13.404903" y="63.617"/>
  <use xlink:href="#glyph0-2" x="19.258169" y="63.617"/>
  <use xlink:href="#glyph0-2" x="25.761798" y="63.617"/>
  <use xlink:href="#glyph0-6" x="32.265427" y="63.617"/>
  <use xlink:href="#glyph0-4" x="37.46833" y="63.617"/>
  <use xlink:href="#glyph0-3" x="42.671233" y="63.617"/>
  <use xlink:href="#glyph0-6" x="47.223773" y="63.617"/>
  <use xlink:href="#glyph0-7" x="52.426676" y="63.617"/>
</g>
<g style="fill:rgb(0%,0%,0%);fill-opacity:1;">
  <use xlink:href="#glyph1-1" x="62.83" y="63.617"/>
  <use xlink:href="#glyph1-2" x="68.982146" y="63.617"/>
  <use xlink:href="#glyph1-3" x="75.134292" y="63.617"/>
  <use xlink:href="#glyph1-4" x="81.286438" y="63.617"/>
  <use xlink:href="#glyph1-5" x="87.438584" y="63.617"/>
  <use xlink:href="#glyph1-6" x="93.59073" y="63.617"/>
</g>
<path style="fill:none;stroke-width:0.398;stroke-linecap:butt;stroke-linejoin:miter;stroke:rgb(0%,0%,0%);stroke-opacity:1;stroke-miterlimit:10;" d="M 0.00146875 -0.00096875 L 3.692875 -0.00096875 " transform="matrix(1,0,0,-1,100.479,63.417)"/>
<g style="fill:rgb(0%,0%,0%);fill-opacity:1;">
  <use xlink:href="#glyph1-7" x="104.171" y="63.617"/>
  <use xlink:href="#glyph1-5" x="110.323146" y="63.617"/>
  <use xlink:href="#glyph1-8" x="116.475292" y="63.617"/>
  <use xlink:href="#glyph1-9" x="122.627438" y="63.617"/>
  <use xlink:href="#glyph1-10" x="128.779584" y="63.617"/>
</g>
<path style="fill-rule:nonzero;fill:rgb(0%,0%,0%);fill-opacity:1;stroke-width:0.3985;stroke-linecap:butt;stroke-linejoin:miter;stroke:rgb(0%,0%,0%);stroke-opacity:1;stroke-miterlimit:10;" d="M 0.996344 -77.955344 C 0.996344 -77.404563 0.551031 -76.95925 0.00025 -76.95925 C -0.550531 -76.95925 -0.995844 -77.404563 -0.995844 -77.955344 C -0.995844 -78.502219 -0.550531 -78.951438 0.00025 -78.951438 C 0.551031 -78.951438 0.996344 -78.502219 0.996344 -77.955344 Z M 0.996344 -77.955344 " transform="matrix(1,0,0,-1,139.031,32.447)"/>
<g style="fill:rgb(0%,0%,0%);fill-opacity:1;">
  <use xlink:href="#glyph0-4" x="8.202" y="113.223"/>
  <use xlink:href="#glyph0-5" x="13.404903" y="113.223"/>
  <use xlink:href="#glyph0-2" x="19.258169" y="113.223"/>
  <use xlink:href="#glyph0-2" x="25.761798" y="113.223"/>
  <use xlink:href="#glyph0-6" x="32.265427" y="113.223"/>
  <use xlink:href="#glyph0-4" x="37.46833" y="113.223"/>
  <use xlink:href="#glyph0-3" x="42.671233" y="113.223"/>
  <use xlink:href="#glyph0-6" x="47.223773" y="113.223"/>
  <use xlink:href="#glyph0-7" x="52.426676" y="113.223"/>
</g>
<g style="fill:rgb(0%,0%,0%);fill-opacity:1;">
  <use xlink:href="#glyph1-1" x="62.83" y="113.223"/>
  <use xlink:href="#glyph1-2" x="68.982146" y="113.223"/>
  <use xlink:href="#glyph1-3" x="75.134292" y="113.223"/>
  <use xlink:href="#glyph1-4" x="81.286438" y="113.223"/>
  <use xlink:href="#glyph1-5" x="87.438584" y="113.223"/>
  <use xlink:href="#glyph1-6" x="93.59073" y="113.223"/>
</g>
<path style="fill:none;stroke-width:0.398;stroke-linecap:butt;stroke-linejoin:miter;stroke:rgb(0%,0%,0%);stroke-opacity:1;stroke-miterlimit:10;" d="M 0.00146875 0.0005625 L 3.692875 0.0005625 " transform="matrix(1,0,0,-1,100.479,113.024)"/>
<g style="fill:rgb(0%,0%,0%);fill-opacity:1;">
  <use xlink:href="#glyph1-7" x="104.171" y="113.223"/>
  <use xlink:href="#glyph1-5" x="110.323146" y="113.223"/>
  <use xlink:href="#glyph1-8" x="116.475292" y="113.223"/>
  <use xlink:href="#glyph1-11" x="122.627438" y="113.223"/>
  <use xlink:href="#glyph1-10" x="128.779584" y="113.223"/>
</g>
<g style="fill:rgb(0%,0%,0%);fill-opacity:1;">
  <use xlink:href="#glyph1-12" x="114.423" y="15.508"/>
  <use xlink:href="#glyph1-13" x="120.575146" y="15.508"/>
  <use xlink:href="#glyph1-14" x="126.727292" y="15.508"/>
  <use xlink:href="#glyph1-15" x="132.879438" y="15.508"/>
  <use xlink:href="#glyph1-12" x="139.031584" y="15.508"/>
  <use xlink:href="#glyph1-16" x="145.18373" y="15.508"/>
  <use xlink:href="#glyph1-6" x="151.335876" y="15.508"/>
  <use xlink:href="#glyph1-13" x="157.488021" y="15.508"/>
</g>
<path style="fill:none;stroke-width:0.3985;stroke-linecap:butt;stroke-linejoin:miter;stroke:rgb(0%,0%,0%);stroke-opacity:1;stroke-miterlimit:10;" d="M 0.00025 0.0016875 L 0.00025 -28.345969 " transform="matrix(1,0,0,-1,139.031,32.447)"/>
<path style="fill:none;stroke-width:0.3985;stroke-linecap:butt;stroke-linejoin:miter;stroke:rgb(0%,0%,0%);stroke-opacity:1;stroke-miterlimit:10;" d="M 0.00025 -28.345969 L 0.00025 -77.955344 " transform="matrix(1,0,0,-1,139.031,32.447)"/>
<path style="fill:none;stroke-width:0.3985;stroke-linecap:butt;stroke-linejoin:miter;stroke:rgb(0%,0%,0%);stroke-opacity:1;stroke-dasharray:2.98883,2.98883;stroke-miterlimit:10;" d="M 0.00025 -77.955344 L 0.00025 -113.388938 " transform="matrix(1,0,0,-1,139.031,32.447)"/>
<path style="fill-rule:nonzero;fill:rgb(0%,0%,0%);fill-opacity:1;stroke-width:0.3985;stroke-linecap:butt;stroke-linejoin:miter;stroke:rgb(0%,0%,0%);stroke-opacity:1;stroke-miterlimit:10;" d="M 86.035406 0.0016875 C 86.035406 0.548562 85.590094 0.997781 85.039312 0.997781 C 84.488531 0.997781 84.043219 0.548562 84.043219 0.0016875 C 84.043219 -0.549094 84.488531 -0.994406 85.039312 -0.994406 C 85.590094 -0.994406 86.035406 -0.549094 86.035406 0.0016875 Z M 86.035406 0.0016875 " transform="matrix(1,0,0,-1,139.031,32.447)"/>
<g style="fill:rgb(0%,0%,0%);fill-opacity:1;">
  <use xlink:href="#glyph0-1" x="228.171" y="36.415"/>
  <use xlink:href="#glyph0-2" x="231.422814" y="36.415"/>
  <use xlink:href="#glyph0-1" x="237.926443" y="36.415"/>
  <use xlink:href="#glyph0-3" x="241.178258" y="36.415"/>
</g>
<path style="fill-rule:nonzero;fill:rgb(0%,0%,0%);fill-opacity:1;stroke-width:0.3985;stroke-linecap:butt;stroke-linejoin:miter;stroke:rgb(0%,0%,0%);stroke-opacity:1;stroke-miterlimit:10;" d="M 86.035406 -28.345969 C 86.035406 -27.795188 85.590094 -27.349875 85.039312 -27.349875 C 84.488531 -27.349875 84.043219 -27.795188 84.043219 -28.345969 C 84.043219 -28.89675 84.488531 -29.342063 85.039312 -29.342063 C 85.590094 -29.342063 86.035406 -28.89675 86.035406 -28.345969 Z M 86.035406 -28.345969 " transform="matrix(1,0,0,-1,139.031,32.447)"/>
<path style="fill-rule:nonzero;fill:rgb(0%,0%,0%);fill-opacity:1;stroke-width:0.3985;stroke-linecap:butt;stroke-linejoin:miter;stroke:rgb(0%,0%,0%);stroke-opacity:1;stroke-miterlimit:10;" d="M 86.035406 -77.955344 C 86.035406 -77.404563 85.590094 -76.95925 85.039312 -76.95925 C 84.488531 -76.95925 84.043219 -77.404563 84.043219 -77.955344 C 84.043219 -78.502219 84.488531 -78.951438 85.039312 -78.951438 C 85.590094 -78.951438 86.035406 -78.502219 86.035406 -77.955344 Z M 86.035406 -77.955344 " transform="matrix(1,0,0,-1,139.031,32.447)"/>
<g style="fill:rgb(0%,0%,0%);fill-opacity:1;">
  <use xlink:href="#glyph1-4" x="167.35" y="15.508"/>
  <use xlink:href="#glyph1-17" x="173.502146" y="15.508"/>
  <use xlink:href="#glyph1-18" x="179.654292" y="15.508"/>
  <use xlink:href="#glyph1-1" x="185.806438" y="15.508"/>
  <use xlink:href="#glyph1-5" x="191.958584" y="15.508"/>
</g>
<path style="fill:none;stroke-width:0.398;stroke-linecap:butt;stroke-linejoin:miter;stroke:rgb(0%,0%,0%);stroke-opacity:1;stroke-miterlimit:10;" d="M 0.00065625 -0.00059375 L 3.692062 -0.00059375 " transform="matrix(1,0,0,-1,198.847,15.308)"/>
<g style="fill:rgb(0%,0%,0%);fill-opacity:1;">
  <use xlink:href="#glyph1-1" x="202.539" y="15.508"/>
  <use xlink:href="#glyph1-2" x="208.691146" y="15.508"/>
  <use xlink:href="#glyph1-3" x="214.843292" y="15.508"/>
  <use xlink:href="#glyph1-4" x="220.995438" y="15.508"/>
  <use xlink:href="#glyph1-5" x="227.147584" y="15.508"/>
  <use xlink:href="#glyph1-6" x="233.29973" y="15.508"/>
</g>
<path style="fill:none;stroke-width:0.398;stroke-linecap:butt;stroke-linejoin:miter;stroke:rgb(0%,0%,0%);stroke-opacity:1;stroke-miterlimit:10;" d="M -0.0005 -0.00059375 L 3.690906 -0.00059375 " transform="matrix(1,0,0,-1,240.188,15.308)"/>
<g style="fill:rgb(0%,0%,0%);fill-opacity:1;">
  <use xlink:href="#glyph1-8" x="243.88" y="15.508"/>
  <use xlink:href="#glyph1-16" x="250.032146" y="15.508"/>
  <use xlink:href="#glyph1-5" x="256.184292" y="15.508"/>
  <use xlink:href="#glyph1-19" x="262.336438" y="15.508"/>
  <use xlink:href="#glyph1-14" x="268.488584" y="15.508"/>
  <use xlink:href="#glyph1-16" x="274.64073" y="15.508"/>
</g>
<path style="fill:none;stroke-width:0.3985;stroke-linecap:butt;stroke-linejoin:miter;stroke:rgb(0%,0%,0%);stroke-opacity:1;stroke-miterlimit:10;" d="M 85.039312 0.0016875 L 85.039312 -28.345969 " transform="matrix(1,0,0,-1,139.031,32.447)"/>
<path style="fill:none;stroke-width:0.3985;stroke-linecap:butt;stroke-linejoin:miter;stroke:rgb(0%,0%,0%);stroke-opacity:1;stroke-miterlimit:10;" d="M 85.039312 -28.345969 L 85.039312 -77.955344 " transform="matrix(1,0,0,-1,139.031,32.447)"/>
<path style="fill:none;stroke-width:0.3985;stroke-linecap:butt;stroke-linejoin:miter;stroke:rgb(0%,0%,0%);stroke-opacity:1;stroke-dasharray:2.98883,2.98883;stroke-miterlimit:10;" d="M 85.039312 -77.955344 L 85.039312 -113.388938 " transform="matrix(1,0,0,-1,139.031,32.447)"/>
<path style="fill:none;stroke-width:0.3985;stroke-linecap:butt;stroke-linejoin:miter;stroke:rgb(0%,0%,0%);stroke-opacity:1;stroke-miterlimit:10;" d="M 0.00025 -28.345969 L 84.582281 -28.345969 " transform="matrix(1,0,0,-1,139.031,32.447)"/>
<path style="fill:none;stroke-width:0.31879;stroke-linecap:round;stroke-linejoin:round;stroke:rgb(0%,0%,0%);stroke-opacity:1;stroke-miterlimit:10;" d="M -1.195171 1.594581 C -1.097515 0.996925 0.00014125 0.0984875 0.297016 0.00083125 C 0.00014125 -0.100731 -1.097515 -0.995263 -1.195171 -1.592919 " transform="matrix(1,0,0,-1,223.61314,60.7938)"/>
<g style="fill:rgb(0%,0%,0%);fill-opacity:1;">
  <use xlink:href="#glyph1-12" x="147.715" y="55.697"/>
  <use xlink:href="#glyph1-13" x="153.867146" y="55.697"/>
  <use xlink:href="#glyph1-14" x="160.019292" y="55.697"/>
  <use xlink:href="#glyph1-15" x="166.171438" y="55.697"/>
  <use xlink:href="#glyph1-12" x="172.323584" y="55.697"/>
  <use xlink:href="#glyph1-20" x="178.47573" y="55.697"/>
  <use xlink:href="#glyph1-21" x="184.627876" y="55.697"/>
  <use xlink:href="#glyph1-6" x="190.780021" y="55.697"/>
  <use xlink:href="#glyph1-8" x="196.932167" y="55.697"/>
  <use xlink:href="#glyph1-14" x="203.084313" y="55.697"/>
  <use xlink:href="#glyph1-13" x="209.236459" y="55.697"/>
</g>
<path style="fill:none;stroke-width:0.3985;stroke-linecap:butt;stroke-linejoin:miter;stroke:rgb(0%,0%,0%);stroke-opacity:1;stroke-miterlimit:10;" d="M 0.00025 -77.955344 L 84.582281 -77.955344 " transform="matrix(1,0,0,-1,139.031,32.447)"/>
<path style="fill:none;stroke-width:0.31879;stroke-linecap:round;stroke-linejoin:round;stroke:rgb(0%,0%,0%);stroke-opacity:1;stroke-miterlimit:10;" d="M -1.195171 1.592126 C -1.097515 0.99447 0.00014125 0.0999387 0.297016 -0.00162375 C 0.00014125 -0.09928 -1.097515 -0.997718 -1.195171 -1.595374 " transform="matrix(1,0,0,-1,223.61314,110.40072)"/>
<path style="fill:none;stroke-width:0.3985;stroke-linecap:butt;stroke-linejoin:miter;stroke:rgb(0%,0%,0%);stroke-opacity:1;stroke-dasharray:2.98883,2.98883;stroke-miterlimit:10;" d="M 141.933844 -44.451438 L 263.12525 -44.451438 L 263.12525 -12.2405 L 141.933844 -12.2405 Z M 141.933844 -44.451438 " transform="matrix(1,0,0,-1,139.031,32.447)"/>
<g style="fill:rgb(0%,0%,0%);fill-opacity:1;">
  <use xlink:href="#glyph1-1" x="284.864" y="55.896"/>
  <use xlink:href="#glyph1-2" x="291.016146" y="55.896"/>
  <use xlink:href="#glyph1-3" x="297.168292" y="55.896"/>
  <use xlink:href="#glyph1-4" x="303.320438" y="55.896"/>
  <use xlink:href="#glyph1-5" x="309.472584" y="55.896"/>
  <use xlink:href="#glyph1-6" x="315.62473" y="55.896"/>
</g>
<path style="fill:none;stroke-width:0.398;stroke-linecap:butt;stroke-linejoin:miter;stroke:rgb(0%,0%,0%);stroke-opacity:1;stroke-miterlimit:10;" d="M 0.001625 0.0006875 L 3.689125 0.0006875 " transform="matrix(1,0,0,-1,322.514,55.696)"/>
<g style="fill:rgb(0%,0%,0%);fill-opacity:1;">
  <use xlink:href="#glyph1-8" x="326.205" y="55.896"/>
  <use xlink:href="#glyph1-16" x="332.357146" y="55.896"/>
  <use xlink:href="#glyph1-5" x="338.509292" y="55.896"/>
  <use xlink:href="#glyph1-19" x="344.661438" y="55.896"/>
  <use xlink:href="#glyph1-14" x="350.813584" y="55.896"/>
  <use xlink:href="#glyph1-16" x="356.96573" y="55.896"/>
</g>
<g style="fill:rgb(0%,0%,0%);fill-opacity:1;">
  <use xlink:href="#glyph1-16" x="284.864" y="70.341"/>
  <use xlink:href="#glyph1-6" x="291.016146" y="70.341"/>
  <use xlink:href="#glyph1-15" x="297.168292" y="70.341"/>
  <use xlink:href="#glyph1-6" x="303.320438" y="70.341"/>
  <use xlink:href="#glyph1-1" x="309.472584" y="70.341"/>
</g>
<path style="fill:none;stroke-width:0.398;stroke-linecap:butt;stroke-linejoin:miter;stroke:rgb(0%,0%,0%);stroke-opacity:1;stroke-miterlimit:10;" d="M 0.00128125 0.001375 L 3.692687 0.001375 " transform="matrix(1,0,0,-1,316.362,70.142)"/>
<g style="fill:rgb(0%,0%,0%);fill-opacity:1;">
  <use xlink:href="#glyph1-13" x="320.053" y="70.341"/>
  <use xlink:href="#glyph1-1" x="326.205146" y="70.341"/>
  <use xlink:href="#glyph1-12" x="332.357292" y="70.341"/>
  <use xlink:href="#glyph1-1" x="338.509438" y="70.341"/>
  <use xlink:href="#glyph1-14" x="344.661584" y="70.341"/>
</g>
<path style="fill:none;stroke-width:0.398;stroke-linecap:butt;stroke-linejoin:miter;stroke:rgb(0%,0%,0%);stroke-opacity:1;stroke-miterlimit:10;" d="M -0.00021875 0.001375 L 3.691188 0.001375 " transform="matrix(1,0,0,-1,351.551,70.142)"/>
<g clip-path="url(#clip1)" clip-rule="nonzero">
<g style="fill:rgb(0%,0%,0%);fill-opacity:1;">
  <use xlink:href="#glyph1-22" x="355.242" y="70.341"/>
  <use xlink:href="#glyph1-17" x="361.394146" y="70.341"/>
  <use xlink:href="#glyph1-15" x="367.546292" y="70.341"/>
  <use xlink:href="#glyph1-18" x="373.698438" y="70.341"/>
  <use xlink:href="#glyph1-5" x="379.850584" y="70.341"/>
  <use xlink:href="#glyph1-13" x="386.00273" y="70.341"/>
  <use xlink:href="#glyph1-2" x="392.154876" y="70.341"/>
  <use xlink:href="#glyph1-14" x="398.307021" y="70.341"/>
  <use xlink:href="#glyph1-16" x="404.459167" y="70.341"/>
</g>
</g>
<g style="fill:rgb(0%,0%,0%);fill-opacity:1;">
  <use xlink:href="#glyph1-1" x="305.507" y="37.731"/>
  <use xlink:href="#glyph1-2" x="311.659146" y="37.731"/>
  <use xlink:href="#glyph1-3" x="317.811292" y="37.731"/>
  <use xlink:href="#glyph1-4" x="323.963438" y="37.731"/>
  <use xlink:href="#glyph1-5" x="330.115584" y="37.731"/>
  <use xlink:href="#glyph1-6" x="336.26773" y="37.731"/>
</g>
<path style="fill:none;stroke-width:0.398;stroke-linecap:butt;stroke-linejoin:miter;stroke:rgb(0%,0%,0%);stroke-opacity:1;stroke-miterlimit:10;" d="M 0.00025 0.00075 L 3.691656 0.00075 " transform="matrix(1,0,0,-1,343.156,37.532)"/>
<g style="fill:rgb(0%,0%,0%);fill-opacity:1;">
  <use xlink:href="#glyph1-7" x="346.848" y="37.731"/>
  <use xlink:href="#glyph1-5" x="353.000146" y="37.731"/>
  <use xlink:href="#glyph1-8" x="359.152292" y="37.731"/>
  <use xlink:href="#glyph1-9" x="365.304438" y="37.731"/>
  <use xlink:href="#glyph1-10" x="371.456584" y="37.731"/>
</g>
<path style="fill:none;stroke-width:0.3985;stroke-linecap:butt;stroke-linejoin:miter;stroke:rgb(0%,0%,0%);stroke-opacity:1;stroke-dasharray:2.98883,2.98883;stroke-miterlimit:10;" d="M 141.933844 -94.060813 L 263.12525 -94.060813 L 263.12525 -61.845969 L 141.933844 -61.845969 Z M 141.933844 -94.060813 " transform="matrix(1,0,0,-1,139.031,32.447)"/>
<g style="fill:rgb(0%,0%,0%);fill-opacity:1;">
  <use xlink:href="#glyph1-1" x="284.864" y="105.502"/>
  <use xlink:href="#glyph1-2" x="291.016146" y="105.502"/>
  <use xlink:href="#glyph1-3" x="297.168292" y="105.502"/>
  <use xlink:href="#glyph1-4" x="303.320438" y="105.502"/>
  <use xlink:href="#glyph1-5" x="309.472584" y="105.502"/>
  <use xlink:href="#glyph1-6" x="315.62473" y="105.502"/>
</g>
<path style="fill:none;stroke-width:0.398;stroke-linecap:butt;stroke-linejoin:miter;stroke:rgb(0%,0%,0%);stroke-opacity:1;stroke-miterlimit:10;" d="M 0.001625 -0.0016875 L 3.689125 -0.0016875 " transform="matrix(1,0,0,-1,322.514,105.303)"/>
<g style="fill:rgb(0%,0%,0%);fill-opacity:1;">
  <use xlink:href="#glyph1-8" x="326.205" y="105.502"/>
  <use xlink:href="#glyph1-16" x="332.357146" y="105.502"/>
  <use xlink:href="#glyph1-5" x="338.509292" y="105.502"/>
  <use xlink:href="#glyph1-19" x="344.661438" y="105.502"/>
  <use xlink:href="#glyph1-14" x="350.813584" y="105.502"/>
  <use xlink:href="#glyph1-16" x="356.96573" y="105.502"/>
</g>
<g style="fill:rgb(0%,0%,0%);fill-opacity:1;">
  <use xlink:href="#glyph1-16" x="284.864" y="119.948"/>
  <use xlink:href="#glyph1-6" x="291.016146" y="119.948"/>
  <use xlink:href="#glyph1-15" x="297.168292" y="119.948"/>
  <use xlink:href="#glyph1-6" x="303.320438" y="119.948"/>
  <use xlink:href="#glyph1-1" x="309.472584" y="119.948"/>
</g>
<path style="fill:none;stroke-width:0.398;stroke-linecap:butt;stroke-linejoin:miter;stroke:rgb(0%,0%,0%);stroke-opacity:1;stroke-miterlimit:10;" d="M 0.00128125 0.00190625 L 3.692687 0.00190625 " transform="matrix(1,0,0,-1,316.362,119.748)"/>
<g style="fill:rgb(0%,0%,0%);fill-opacity:1;">
  <use xlink:href="#glyph1-13" x="320.053" y="119.948"/>
  <use xlink:href="#glyph1-1" x="326.205146" y="119.948"/>
  <use xlink:href="#glyph1-12" x="332.357292" y="119.948"/>
  <use xlink:href="#glyph1-1" x="338.509438" y="119.948"/>
  <use xlink:href="#glyph1-14" x="344.661584" y="119.948"/>
</g>
<path style="fill:none;stroke-width:0.398;stroke-linecap:butt;stroke-linejoin:miter;stroke:rgb(0%,0%,0%);stroke-opacity:1;stroke-miterlimit:10;" d="M -0.00021875 0.00190625 L 3.691188 0.00190625 " transform="matrix(1,0,0,-1,351.551,119.748)"/>
<g clip-path="url(#clip2)" clip-rule="nonzero">
<g style="fill:rgb(0%,0%,0%);fill-opacity:1;">
  <use xlink:href="#glyph1-22" x="355.242" y="119.948"/>
  <use xlink:href="#glyph1-17" x="361.394146" y="119.948"/>
  <use xlink:href="#glyph1-15" x="367.546292" y="119.948"/>
  <use xlink:href="#glyph1-18" x="373.698438" y="119.948"/>
  <use xlink:href="#glyph1-5" x="379.850584" y="119.948"/>
  <use xlink:href="#glyph1-13" x="386.00273" y="119.948"/>
  <use xlink:href="#glyph1-2" x="392.154876" y="119.948"/>
  <use xlink:href="#glyph1-14" x="398.307021" y="119.948"/>
  <use xlink:href="#glyph1-16" x="404.459167" y="119.948"/>
</g>
</g>
<g style="fill:rgb(0%,0%,0%);fill-opacity:1;">
  <use xlink:href="#glyph1-1" x="305.507" y="87.338"/>
  <use xlink:href="#glyph1-2" x="311.659146" y="87.338"/>
  <use xlink:href="#glyph1-3" x="317.811292" y="87.338"/>
  <use xlink:href="#glyph1-4" x="323.963438" y="87.338"/>
  <use xlink:href="#glyph1-5" x="330.115584" y="87.338"/>
  <use xlink:href="#glyph1-6" x="336.26773" y="87.338"/>
</g>
<path style="fill:none;stroke-width:0.398;stroke-linecap:butt;stroke-linejoin:miter;stroke:rgb(0%,0%,0%);stroke-opacity:1;stroke-miterlimit:10;" d="M 0.00025 0.00128125 L 3.691656 0.00128125 " transform="matrix(1,0,0,-1,343.156,87.138)"/>
<g style="fill:rgb(0%,0%,0%);fill-opacity:1;">
  <use xlink:href="#glyph1-7" x="346.848" y="87.338"/>
  <use xlink:href="#glyph1-5" x="353.000146" y="87.338"/>
  <use xlink:href="#glyph1-8" x="359.152292" y="87.338"/>
  <use xlink:href="#glyph1-11" x="365.304438" y="87.338"/>
  <use xlink:href="#glyph1-10" x="371.456584" y="87.338"/>
</g>
<path style="fill:none;stroke-width:0.3985;stroke-linecap:butt;stroke-linejoin:miter;stroke:rgb(0%,0%,0%);stroke-opacity:1;stroke-miterlimit:10;" d="M 85.039312 -28.345969 L 141.277594 -28.345969 " transform="matrix(1,0,0,-1,139.031,32.447)"/>
<path style="fill:none;stroke-width:0.31879;stroke-linecap:round;stroke-linejoin:round;stroke:rgb(0%,0%,0%);stroke-opacity:1;stroke-miterlimit:10;" d="M -1.197395 1.594581 C -1.095832 0.996925 0.00182375 0.0984875 0.298699 0.00083125 C 0.00182375 -0.100731 -1.095832 -0.995263 -1.197395 -1.592919 " transform="matrix(1,0,0,-1,280.30677,60.7938)"/>
<g style="fill:rgb(0%,0%,0%);fill-opacity:1;">
  <use xlink:href="#glyph0-4" x="237.134" y="56.693"/>
  <use xlink:href="#glyph0-8" x="242.336903" y="56.693"/>
  <use xlink:href="#glyph0-6" x="246.889443" y="56.693"/>
  <use xlink:href="#glyph0-9" x="252.092346" y="56.693"/>
  <use xlink:href="#glyph0-3" x="257.945612" y="56.693"/>
  <use xlink:href="#glyph0-6" x="262.498152" y="56.693"/>
</g>
<path style="fill:none;stroke-width:0.3985;stroke-linecap:butt;stroke-linejoin:miter;stroke:rgb(0%,0%,0%);stroke-opacity:1;stroke-miterlimit:10;" d="M 85.039312 -77.955344 L 141.277594 -77.955344 " transform="matrix(1,0,0,-1,139.031,32.447)"/>
<path style="fill:none;stroke-width:0.31879;stroke-linecap:round;stroke-linejoin:round;stroke:rgb(0%,0%,0%);stroke-opacity:1;stroke-miterlimit:10;" d="M -1.197395 1.592126 C -1.095832 0.99447 0.00182375 0.0999387 0.298699 -0.00162375 C 0.00182375 -0.09928 -1.095832 -0.997718 -1.197395 -1.595374 " transform="matrix(1,0,0,-1,280.30677,110.40072)"/>
<path style="fill:none;stroke-width:0.3985;stroke-linecap:butt;stroke-linejoin:miter;stroke:rgb(0%,0%,0%);stroke-opacity:1;stroke-miterlimit:10;" d="M 0.00025 -77.955344 L 84.582281 -77.955344 " transform="matrix(1,0,0,-1,139.031,32.447)"/>
<path style="fill:none;stroke-width:0.31879;stroke-linecap:round;stroke-linejoin:round;stroke:rgb(0%,0%,0%);stroke-opacity:1;stroke-miterlimit:10;" d="M -1.195171 1.592126 C -1.097515 0.99447 0.00014125 0.0999387 0.297016 -0.00162375 C 0.00014125 -0.09928 -1.097515 -0.997718 -1.195171 -1.595374 " transform="matrix(1,0,0,-1,223.61314,110.40072)"/>
<g clip-path="url(#clip3)" clip-rule="nonzero">
<path style="fill:none;stroke-width:0.3985;stroke-linecap:butt;stroke-linejoin:miter;stroke:rgb(0%,0%,0%);stroke-opacity:1;stroke-miterlimit:10;" d="M -138.831781 -117.287375 L 267.222906 -117.287375 L 267.222906 32.247781 L -138.831781 32.247781 Z M -138.831781 -117.287375 " transform="matrix(1,0,0,-1,139.031,32.447)"/>
</g>
</g>
</svg>
