<?xml version="1.0" encoding="UTF-8"?>
<svg xmlns="http://www.w3.org/2000/svg" xmlns:xlink="http://www.w3.org/1999/xlink" width="425.197pt" height="101.044pt" viewBox="0 0 425.197 101.044" version="1.1">
<defs>
<g>
<symbol overflow="visible" id="glyph0-0">
<path style="stroke:none;" d=""/>
</symbol>
<symbol overflow="visible" id="glyph0-1">
<path style="stroke:none;" d="M 2.078125 -7.359375 C 2.078125 -7.671875 1.828125 -7.953125 1.5 -7.953125 C 1.1875 -7.953125 0.921875 -7.703125 0.921875 -7.375 C 0.921875 -7.015625 1.203125 -6.796875 1.5 -6.796875 C 1.859375 -6.796875 2.078125 -7.09375 2.078125 -7.359375 Z M 0.4375 -5.140625 L 0.4375 -4.796875 C 1.1875 -4.796875 1.296875 -4.71875 1.296875 -4.140625 L 1.296875 -0.890625 C 1.296875 -0.34375 1.171875 -0.34375 0.390625 -0.34375 L 0.390625 0 C 0.734375 -0.03125 1.296875 -0.03125 1.65625 -0.03125 C 1.78125 -0.03125 2.46875 -0.03125 2.875 0 L 2.875 -0.34375 C 2.109375 -0.34375 2.0625 -0.40625 2.0625 -0.875 L 2.0625 -5.265625 Z M 0.4375 -5.140625 "/>
</symbol>
<symbol overflow="visible" id="glyph0-2">
<path style="stroke:none;" d="M 5.3125 -2.90625 C 5.3125 -4.015625 5.3125 -4.34375 5.046875 -4.734375 C 4.703125 -5.203125 4.140625 -5.265625 3.734375 -5.265625 C 2.5625 -5.265625 2.109375 -4.28125 2.015625 -4.046875 L 2.015625 -5.265625 L 0.375 -5.140625 L 0.375 -4.796875 C 1.1875 -4.796875 1.296875 -4.703125 1.296875 -4.125 L 1.296875 -0.890625 C 1.296875 -0.34375 1.15625 -0.34375 0.375 -0.34375 L 0.375 0 C 0.6875 -0.03125 1.34375 -0.03125 1.671875 -0.03125 C 2.015625 -0.03125 2.671875 -0.03125 2.96875 0 L 2.96875 -0.34375 C 2.21875 -0.34375 2.0625 -0.34375 2.0625 -0.890625 L 2.0625 -3.109375 C 2.0625 -4.359375 2.890625 -5.03125 3.640625 -5.03125 C 4.375 -5.03125 4.546875 -4.421875 4.546875 -3.6875 L 4.546875 -0.890625 C 4.546875 -0.34375 4.40625 -0.34375 3.640625 -0.34375 L 3.640625 0 C 3.9375 -0.03125 4.59375 -0.03125 4.921875 -0.03125 C 5.265625 -0.03125 5.921875 -0.03125 6.234375 0 L 6.234375 -0.34375 C 5.625 -0.34375 5.328125 -0.34375 5.3125 -0.703125 Z M 5.3125 -2.90625 "/>
</symbol>
<symbol overflow="visible" id="glyph0-3">
<path style="stroke:none;" d="M 2.015625 -4.8125 L 3.6875 -4.8125 L 3.6875 -5.15625 L 2.015625 -5.15625 L 2.015625 -7.34375 L 1.75 -7.34375 C 1.734375 -6.234375 1.296875 -5.078125 0.21875 -5.046875 L 0.21875 -4.8125 L 1.234375 -4.8125 L 1.234375 -1.484375 C 1.234375 -0.15625 2.109375 0.125 2.75 0.125 C 3.5 0.125 3.890625 -0.625 3.890625 -1.484375 L 3.890625 -2.15625 L 3.640625 -2.15625 L 3.640625 -1.5 C 3.640625 -0.640625 3.28125 -0.140625 2.828125 -0.140625 C 2.015625 -0.140625 2.015625 -1.25 2.015625 -1.453125 Z M 2.015625 -4.8125 "/>
</symbol>
<symbol overflow="visible" id="glyph0-4">
<path style="stroke:none;" d="M 4.328125 -4.421875 C 4.1875 -4.421875 3.734375 -4.421875 3.734375 -3.9375 C 3.734375 -3.640625 3.9375 -3.4375 4.234375 -3.4375 C 4.5 -3.4375 4.734375 -3.609375 4.734375 -3.953125 C 4.734375 -4.75 3.890625 -5.328125 2.921875 -5.328125 C 1.53125 -5.328125 0.421875 -4.09375 0.421875 -2.578125 C 0.421875 -1.046875 1.5625 0.125 2.921875 0.125 C 4.5 0.125 4.859375 -1.3125 4.859375 -1.421875 C 4.859375 -1.53125 4.765625 -1.53125 4.734375 -1.53125 C 4.625 -1.53125 4.609375 -1.5 4.578125 -1.34375 C 4.3125 -0.5 3.671875 -0.140625 3.03125 -0.140625 C 2.296875 -0.140625 1.328125 -0.78125 1.328125 -2.59375 C 1.328125 -4.578125 2.34375 -5.0625 2.9375 -5.0625 C 3.390625 -5.0625 4.046875 -4.890625 4.328125 -4.421875 Z M 4.328125 -4.421875 "/>
</symbol>
<symbol overflow="visible" id="glyph0-5">
<path style="stroke:none;" d="M 5.484375 -2.5625 C 5.484375 -4.09375 4.3125 -5.328125 2.921875 -5.328125 C 1.5 -5.328125 0.359375 -4.0625 0.359375 -2.5625 C 0.359375 -1.03125 1.546875 0.125 2.921875 0.125 C 4.328125 0.125 5.484375 -1.046875 5.484375 -2.5625 Z M 2.921875 -0.140625 C 2.484375 -0.140625 1.953125 -0.328125 1.609375 -0.921875 C 1.28125 -1.453125 1.265625 -2.15625 1.265625 -2.671875 C 1.265625 -3.125 1.265625 -3.84375 1.640625 -4.390625 C 1.96875 -4.90625 2.5 -5.09375 2.921875 -5.09375 C 3.375 -5.09375 3.890625 -4.875 4.203125 -4.40625 C 4.578125 -3.859375 4.578125 -3.109375 4.578125 -2.671875 C 4.578125 -2.25 4.578125 -1.5 4.265625 -0.9375 C 3.9375 -0.375 3.375 -0.140625 2.921875 -0.140625 Z M 2.921875 -0.140625 "/>
</symbol>
<symbol overflow="visible" id="glyph0-6">
<path style="stroke:none;" d="M 4.578125 -2.765625 C 4.84375 -2.765625 4.859375 -2.765625 4.859375 -3 C 4.859375 -4.203125 4.21875 -5.328125 2.765625 -5.328125 C 1.40625 -5.328125 0.359375 -4.09375 0.359375 -2.625 C 0.359375 -1.046875 1.578125 0.125 2.90625 0.125 C 4.328125 0.125 4.859375 -1.171875 4.859375 -1.421875 C 4.859375 -1.5 4.8125 -1.546875 4.734375 -1.546875 C 4.640625 -1.546875 4.609375 -1.484375 4.59375 -1.421875 C 4.28125 -0.421875 3.484375 -0.140625 2.96875 -0.140625 C 2.46875 -0.140625 1.265625 -0.484375 1.265625 -2.546875 L 1.265625 -2.765625 Z M 1.28125 -3 C 1.375 -4.875 2.421875 -5.09375 2.765625 -5.09375 C 4.046875 -5.09375 4.109375 -3.40625 4.125 -3 Z M 1.28125 -3 "/>
</symbol>
<symbol overflow="visible" id="glyph0-7">
<path style="stroke:none;" d="M 3.578125 -8.15625 L 3.578125 -7.8125 C 4.40625 -7.8125 4.5 -7.734375 4.5 -7.140625 L 4.5 -4.5 C 4.25 -4.859375 3.734375 -5.265625 3 -5.265625 C 1.609375 -5.265625 0.421875 -4.09375 0.421875 -2.5625 C 0.421875 -1.046875 1.546875 0.125 2.875 0.125 C 3.78125 0.125 4.296875 -0.484375 4.46875 -0.703125 L 4.46875 0.125 L 6.15625 0 L 6.15625 -0.34375 C 5.34375 -0.34375 5.25 -0.4375 5.25 -1.015625 L 5.25 -8.296875 Z M 4.46875 -1.40625 C 4.46875 -1.1875 4.46875 -1.140625 4.296875 -0.890625 C 4.015625 -0.46875 3.53125 -0.125 2.921875 -0.125 C 2.625 -0.125 1.328125 -0.234375 1.328125 -2.5625 C 1.328125 -3.421875 1.46875 -3.890625 1.734375 -4.296875 C 1.96875 -4.65625 2.453125 -5.03125 3.046875 -5.03125 C 3.796875 -5.03125 4.203125 -4.5 4.328125 -4.296875 C 4.46875 -4.09375 4.46875 -4.078125 4.46875 -3.859375 Z M 4.46875 -1.40625 "/>
</symbol>
<symbol overflow="visible" id="glyph0-8">
<path style="stroke:none;" d="M 7.8125 -8.109375 L 0.640625 -8.109375 L 0.421875 -5.4375 L 0.6875 -5.4375 C 0.84375 -7.328125 0.953125 -7.75 2.84375 -7.75 C 3.0625 -7.75 3.390625 -7.75 3.484375 -7.734375 C 3.734375 -7.703125 3.734375 -7.546875 3.734375 -7.28125 L 3.734375 -0.921875 C 3.734375 -0.515625 3.734375 -0.34375 2.5625 -0.34375 L 2.140625 -0.34375 L 2.140625 0 C 2.515625 -0.03125 3.75 -0.03125 4.21875 -0.03125 C 4.6875 -0.03125 5.921875 -0.03125 6.3125 0 L 6.3125 -0.34375 L 5.875 -0.34375 C 4.703125 -0.34375 4.703125 -0.515625 4.703125 -0.921875 L 4.703125 -7.28125 C 4.703125 -7.578125 4.734375 -7.6875 4.921875 -7.734375 C 5.015625 -7.75 5.359375 -7.75 5.59375 -7.75 C 7.484375 -7.75 7.59375 -7.328125 7.75 -5.4375 L 8.015625 -5.4375 Z M 7.8125 -8.109375 "/>
</symbol>
<symbol overflow="visible" id="glyph0-9">
<path style="stroke:none;" d="M 5.3125 -2.90625 C 5.3125 -4.015625 5.3125 -4.34375 5.046875 -4.734375 C 4.703125 -5.203125 4.140625 -5.265625 3.734375 -5.265625 C 2.703125 -5.265625 2.21875 -4.5 2.0625 -4.125 L 2.046875 -4.125 L 2.046875 -8.296875 L 0.375 -8.15625 L 0.375 -7.8125 C 1.1875 -7.8125 1.296875 -7.734375 1.296875 -7.140625 L 1.296875 -0.890625 C 1.296875 -0.34375 1.15625 -0.34375 0.375 -0.34375 L 0.375 0 C 0.6875 -0.03125 1.34375 -0.03125 1.671875 -0.03125 C 2.015625 -0.03125 2.671875 -0.03125 2.96875 0 L 2.96875 -0.34375 C 2.21875 -0.34375 2.0625 -0.34375 2.0625 -0.890625 L 2.0625 -3.109375 C 2.0625 -4.359375 2.890625 -5.03125 3.640625 -5.03125 C 4.375 -5.03125 4.546875 -4.421875 4.546875 -3.6875 L 4.546875 -0.890625 C 4.546875 -0.34375 4.40625 -0.34375 3.640625 -0.34375 L 3.640625 0 C 3.9375 -0.03125 4.59375 -0.03125 4.921875 -0.03125 C 5.265625 -0.03125 5.921875 -0.03125 6.234375 0 L 6.234375 -0.34375 C 5.625 -0.34375 5.328125 -0.34375 5.3125 -0.703125 Z M 5.3125 -2.90625 "/>
</symbol>
<symbol overflow="visible" id="glyph0-10">
<path style="stroke:none;" d="M 4.84375 -4 C 5.15625 -4.796875 5.71875 -4.8125 5.953125 -4.8125 L 5.953125 -5.15625 C 5.609375 -5.125 5.4375 -5.125 5.0625 -5.125 C 4.78125 -5.125 4.75 -5.125 4.09375 -5.15625 L 4.09375 -4.8125 C 4.53125 -4.78125 4.640625 -4.5 4.640625 -4.296875 C 4.640625 -4.1875 4.609375 -4.125 4.5625 -4 L 3.34375 -0.984375 L 2.015625 -4.25 C 1.953125 -4.40625 1.953125 -4.484375 1.953125 -4.5 C 1.953125 -4.8125 2.359375 -4.8125 2.609375 -4.8125 L 2.609375 -5.15625 C 2.296875 -5.125 1.703125 -5.125 1.375 -5.125 C 0.921875 -5.125 0.890625 -5.125 0.21875 -5.15625 L 0.21875 -4.8125 C 0.90625 -4.8125 1 -4.75 1.15625 -4.375 L 2.9375 0 C 2.421875 1.265625 2.421875 1.296875 2.359375 1.390625 C 2.15625 1.75 1.84375 2.203125 1.296875 2.203125 C 0.9375 2.203125 0.703125 1.984375 0.703125 1.984375 C 0.703125 1.984375 1.125 1.9375 1.125 1.515625 C 1.125 1.234375 0.890625 1.078125 0.6875 1.078125 C 0.484375 1.078125 0.234375 1.1875 0.234375 1.546875 C 0.234375 2 0.671875 2.4375 1.296875 2.4375 C 1.96875 2.4375 2.46875 1.859375 2.765625 1.09375 Z M 4.84375 -4 "/>
</symbol>
<symbol overflow="visible" id="glyph0-11">
<path style="stroke:none;" d="M 8.578125 -2.90625 C 8.578125 -4.015625 8.578125 -4.34375 8.296875 -4.734375 C 7.953125 -5.203125 7.390625 -5.265625 6.984375 -5.265625 C 5.984375 -5.265625 5.484375 -4.546875 5.296875 -4.09375 C 5.125 -5.015625 4.484375 -5.265625 3.734375 -5.265625 C 2.5625 -5.265625 2.109375 -4.28125 2.015625 -4.046875 L 2.015625 -5.265625 L 0.375 -5.140625 L 0.375 -4.796875 C 1.1875 -4.796875 1.296875 -4.703125 1.296875 -4.125 L 1.296875 -0.890625 C 1.296875 -0.34375 1.15625 -0.34375 0.375 -0.34375 L 0.375 0 C 0.6875 -0.03125 1.34375 -0.03125 1.671875 -0.03125 C 2.015625 -0.03125 2.671875 -0.03125 2.96875 0 L 2.96875 -0.34375 C 2.21875 -0.34375 2.0625 -0.34375 2.0625 -0.890625 L 2.0625 -3.109375 C 2.0625 -4.359375 2.890625 -5.03125 3.640625 -5.03125 C 4.375 -5.03125 4.546875 -4.421875 4.546875 -3.6875 L 4.546875 -0.890625 C 4.546875 -0.34375 4.40625 -0.34375 3.640625 -0.34375 L 3.640625 0 C 3.9375 -0.03125 4.59375 -0.03125 4.921875 -0.03125 C 5.265625 -0.03125 5.921875 -0.03125 6.234375 0 L 6.234375 -0.34375 C 5.46875 -0.34375 5.3125 -0.34375 5.3125 -0.890625 L 5.3125 -3.109375 C 5.3125 -4.359375 6.140625 -5.03125 6.890625 -5.03125 C 7.625 -5.03125 7.796875 -4.421875 7.796875 -3.6875 L 7.796875 -0.890625 C 7.796875 -0.34375 7.65625 -0.34375 6.890625 -0.34375 L 6.890625 0 C 7.203125 -0.03125 7.84375 -0.03125 8.171875 -0.03125 C 8.515625 -0.03125 9.171875 -0.03125 9.484375 0 L 9.484375 -0.34375 C 8.875 -0.34375 8.578125 -0.34375 8.578125 -0.703125 Z M 8.578125 -2.90625 "/>
</symbol>
<symbol overflow="visible" id="glyph0-12">
<path style="stroke:none;" d="M 7.234375 -4.015625 C 7.5 -4.765625 8.015625 -4.796875 8.21875 -4.8125 L 8.21875 -5.15625 C 7.921875 -5.125 7.703125 -5.125 7.34375 -5.125 C 7 -5.125 6.96875 -5.125 6.328125 -5.15625 L 6.328125 -4.8125 C 6.859375 -4.78125 7 -4.453125 7 -4.234375 C 7 -4.21875 7 -4.140625 6.953125 -4.015625 L 5.859375 -0.890625 L 4.65625 -4.265625 C 4.609375 -4.40625 4.609375 -4.4375 4.609375 -4.46875 C 4.609375 -4.8125 5.046875 -4.8125 5.296875 -4.8125 L 5.296875 -5.15625 C 4.953125 -5.125 4.46875 -5.125 4.125 -5.125 C 3.734375 -5.125 3.71875 -5.125 3.046875 -5.15625 L 3.046875 -4.8125 C 3.5 -4.8125 3.65625 -4.78125 3.796875 -4.625 C 3.84375 -4.546875 4 -4.15625 4.078125 -3.921875 L 3.0625 -1 L 1.90625 -4.25 C 1.859375 -4.40625 1.859375 -4.4375 1.859375 -4.484375 C 1.859375 -4.8125 2.3125 -4.8125 2.546875 -4.8125 L 2.546875 -5.15625 C 2.25 -5.125 1.65625 -5.125 1.328125 -5.125 C 0.984375 -5.125 0.96875 -5.125 0.21875 -5.15625 L 0.21875 -4.8125 C 0.828125 -4.8125 0.9375 -4.75 1.078125 -4.375 L 2.578125 -0.09375 C 2.625 0.03125 2.671875 0.125 2.796875 0.125 C 2.90625 0.125 2.96875 0.078125 3.03125 -0.109375 L 4.21875 -3.515625 L 5.421875 -0.109375 C 5.46875 0.078125 5.53125 0.125 5.640625 0.125 C 5.765625 0.125 5.8125 0.03125 5.859375 -0.09375 Z M 7.234375 -4.015625 "/>
</symbol>
<symbol overflow="visible" id="glyph0-13">
<path style="stroke:none;" d="M 4.609375 -3.1875 C 4.609375 -3.84375 4.609375 -4.3125 4.09375 -4.78125 C 3.671875 -5.15625 3.125 -5.328125 2.609375 -5.328125 C 1.625 -5.328125 0.875 -4.6875 0.875 -3.90625 C 0.875 -3.5625 1.09375 -3.390625 1.375 -3.390625 C 1.65625 -3.390625 1.859375 -3.59375 1.859375 -3.890625 C 1.859375 -4.375 1.4375 -4.375 1.25 -4.375 C 1.53125 -4.875 2.109375 -5.09375 2.578125 -5.09375 C 3.125 -5.09375 3.84375 -4.640625 3.84375 -3.5625 L 3.84375 -3.078125 C 1.4375 -3.046875 0.53125 -2.046875 0.53125 -1.125 C 0.53125 -0.171875 1.625 0.125 2.359375 0.125 C 3.140625 0.125 3.6875 -0.359375 3.90625 -0.9375 C 3.953125 -0.375 4.328125 0.0625 4.84375 0.0625 C 5.09375 0.0625 5.78125 -0.109375 5.78125 -1.0625 L 5.78125 -1.734375 L 5.515625 -1.734375 L 5.515625 -1.0625 C 5.515625 -0.375 5.234375 -0.28125 5.0625 -0.28125 C 4.609375 -0.28125 4.609375 -0.921875 4.609375 -1.09375 Z M 3.84375 -1.6875 C 3.84375 -0.515625 2.96875 -0.125 2.453125 -0.125 C 1.859375 -0.125 1.375 -0.546875 1.375 -1.125 C 1.375 -2.703125 3.40625 -2.84375 3.84375 -2.875 Z M 3.84375 -1.6875 "/>
</symbol>
<symbol overflow="visible" id="glyph1-0">
<path style="stroke:none;" d=""/>
</symbol>
<symbol overflow="visible" id="glyph1-1">
<path style="stroke:none;" d="M 4.953125 -3.390625 C 4.953125 -4.296875 4.265625 -5.265625 2.65625 -5.265625 C 2.15625 -5.265625 0.984375 -5.265625 0.984375 -4.4375 C 0.984375 -4.109375 1.21875 -3.9375 1.484375 -3.9375 C 1.546875 -3.9375 1.953125 -3.953125 1.953125 -4.453125 C 1.953125 -4.515625 1.96875 -4.53125 2.21875 -4.546875 C 2.359375 -4.5625 2.515625 -4.5625 2.671875 -4.5625 C 2.9375 -4.5625 3.34375 -4.5625 3.734375 -4.265625 C 4.171875 -3.9375 4.171875 -3.59375 4.171875 -3.25 C 3.46875 -3.234375 2.765625 -3.171875 2.03125 -2.9375 C 1.4375 -2.734375 0.671875 -2.3125 0.671875 -1.5 C 0.671875 -0.640625 1.421875 0.078125 2.53125 0.078125 C 2.921875 0.078125 3.65625 0.015625 4.28125 -0.421875 C 4.515625 -0.03125 5.109375 0 5.5625 0 C 5.859375 0 6.140625 0 6.140625 -0.34375 C 6.140625 -0.6875 5.828125 -0.6875 5.671875 -0.6875 C 5.359375 -0.6875 5.109375 -0.71875 4.953125 -0.78125 Z M 4.171875 -1.578125 C 4.171875 -1.296875 4.171875 -1.046875 3.6875 -0.828125 C 3.265625 -0.625 2.703125 -0.625 2.671875 -0.625 C 1.953125 -0.625 1.453125 -1 1.453125 -1.5 C 1.453125 -2.203125 2.71875 -2.609375 4.171875 -2.609375 Z M 4.171875 -1.578125 "/>
</symbol>
<symbol overflow="visible" id="glyph1-2">
<path style="stroke:none;" d="M 5.015625 -4.8125 C 5.015625 -5 5.015625 -5.265625 4.6875 -5.265625 C 4.40625 -5.265625 4.328125 -4.984375 4.328125 -4.96875 C 3.84375 -5.265625 3.296875 -5.265625 3.0625 -5.265625 C 1.109375 -5.265625 0.84375 -4.265625 0.84375 -3.859375 C 0.84375 -3.375 1.140625 -3.03125 1.546875 -2.8125 C 1.921875 -2.59375 2.265625 -2.53125 3.25 -2.375 C 3.71875 -2.296875 4.671875 -2.140625 4.671875 -1.484375 C 4.671875 -1.046875 4.265625 -0.625 3.15625 -0.625 C 2.390625 -0.625 1.890625 -0.921875 1.640625 -1.78125 C 1.578125 -1.953125 1.546875 -2.078125 1.25 -2.078125 C 0.84375 -2.078125 0.84375 -1.859375 0.84375 -1.609375 L 0.84375 -0.375 C 0.84375 -0.1875 0.84375 0.078125 1.1875 0.078125 C 1.328125 0.078125 1.4375 0.078125 1.609375 -0.421875 C 2.15625 0.03125 2.78125 0.078125 3.15625 0.078125 C 5.359375 0.078125 5.359375 -1.359375 5.359375 -1.484375 C 5.359375 -2.71875 3.890625 -2.96875 3.3125 -3.0625 C 2.265625 -3.234375 1.546875 -3.359375 1.546875 -3.859375 C 1.546875 -4.1875 1.90625 -4.5625 3.03125 -4.5625 C 4.171875 -4.5625 4.21875 -4.03125 4.25 -3.71875 C 4.265625 -3.484375 4.484375 -3.4375 4.625 -3.4375 C 5.015625 -3.4375 5.015625 -3.65625 5.015625 -3.890625 Z M 5.015625 -4.8125 "/>
</symbol>
<symbol overflow="visible" id="glyph1-3">
<path style="stroke:none;" d="M 4.96875 -2.296875 C 5.21875 -2.296875 5.453125 -2.296875 5.453125 -2.734375 C 5.453125 -4.140625 4.65625 -5.265625 3.171875 -5.265625 C 1.78125 -5.265625 0.671875 -4.0625 0.671875 -2.609375 C 0.671875 -1.09375 1.875 0.078125 3.34375 0.078125 C 4.890625 0.078125 5.453125 -0.984375 5.453125 -1.296875 C 5.453125 -1.375 5.421875 -1.640625 5.0625 -1.640625 C 4.828125 -1.640625 4.75 -1.546875 4.6875 -1.375 C 4.390625 -0.6875 3.609375 -0.625 3.375 -0.625 C 2.390625 -0.625 1.609375 -1.375 1.46875 -2.296875 Z M 1.484375 -2.953125 C 1.640625 -3.96875 2.421875 -4.5625 3.171875 -4.5625 C 4.359375 -4.5625 4.609375 -3.546875 4.65625 -2.953125 Z M 1.484375 -2.953125 "/>
</symbol>
<symbol overflow="visible" id="glyph1-4">
<path style="stroke:none;" d="M 1.921875 -6.8125 C 1.921875 -7.1875 1.859375 -7.296875 1.453125 -7.296875 L 0.65625 -7.296875 C 0.484375 -7.296875 0.171875 -7.296875 0.171875 -6.953125 C 0.171875 -6.609375 0.484375 -6.609375 0.65625 -6.609375 L 1.140625 -6.609375 L 1.140625 -0.484375 C 1.140625 -0.28125 1.140625 0 1.546875 0 C 1.921875 0 1.921875 -0.25 1.921875 -0.59375 C 2.21875 -0.28125 2.65625 0.078125 3.328125 0.078125 C 4.59375 0.078125 5.703125 -1.0625 5.703125 -2.578125 C 5.703125 -4.046875 4.703125 -5.21875 3.453125 -5.21875 C 2.578125 -5.21875 2.03125 -4.703125 1.921875 -4.578125 Z M 1.921875 -3.171875 C 1.921875 -3.859375 2.59375 -4.53125 3.375 -4.53125 C 4.234375 -4.53125 4.921875 -3.65625 4.921875 -2.578125 C 4.921875 -1.4375 4.109375 -0.625 3.265625 -0.625 C 2.359375 -0.625 1.921875 -1.640625 1.921875 -2.234375 Z M 1.921875 -3.171875 "/>
</symbol>
<symbol overflow="visible" id="glyph1-5">
<path style="stroke:none;" d="M 2.578125 -2.265625 C 2.578125 -3.6875 3.578125 -4.53125 4.609375 -4.53125 C 4.65625 -4.53125 4.734375 -4.53125 4.796875 -4.515625 C 4.828125 -4.09375 5.15625 -4.046875 5.25 -4.046875 C 5.515625 -4.046875 5.71875 -4.25 5.71875 -4.515625 C 5.71875 -5.03125 5.21875 -5.21875 4.609375 -5.21875 C 3.8125 -5.21875 3.125 -4.859375 2.578125 -4.203125 L 2.578125 -4.65625 C 2.578125 -5.03125 2.515625 -5.15625 2.109375 -5.15625 L 0.890625 -5.15625 C 0.734375 -5.15625 0.421875 -5.15625 0.421875 -4.8125 C 0.421875 -4.453125 0.734375 -4.453125 0.890625 -4.453125 L 1.8125 -4.453125 L 1.8125 -0.6875 L 0.890625 -0.6875 C 0.734375 -0.6875 0.421875 -0.6875 0.421875 -0.34375 C 0.421875 0 0.734375 0 0.890625 0 L 3.84375 0 C 4 0 4.3125 0 4.3125 -0.34375 C 4.3125 -0.6875 4 -0.6875 3.84375 -0.6875 L 2.578125 -0.6875 Z M 2.578125 -2.265625 "/>
</symbol>
<symbol overflow="visible" id="glyph1-6">
<path style="stroke:none;" d="M 5.453125 -2.578125 C 5.453125 -4.078125 4.359375 -5.265625 3.078125 -5.265625 C 1.78125 -5.265625 0.6875 -4.078125 0.6875 -2.578125 C 0.6875 -1.078125 1.796875 0.078125 3.078125 0.078125 C 4.34375 0.078125 5.453125 -1.078125 5.453125 -2.578125 Z M 3.078125 -0.625 C 2.21875 -0.625 1.46875 -1.53125 1.46875 -2.671875 C 1.46875 -3.78125 2.234375 -4.5625 3.078125 -4.5625 C 3.90625 -4.5625 4.671875 -3.78125 4.671875 -2.671875 C 4.671875 -1.515625 3.9375 -0.625 3.078125 -0.625 Z M 3.078125 -0.625 "/>
</symbol>
<symbol overflow="visible" id="glyph1-7">
<path style="stroke:none;" d="M 2.578125 -4.453125 L 4.515625 -4.453125 C 4.6875 -4.453125 5 -4.453125 5 -4.8125 C 5 -5.15625 4.6875 -5.15625 4.515625 -5.15625 L 2.578125 -5.15625 L 2.578125 -6.125 C 2.578125 -6.34375 2.578125 -6.625 2.203125 -6.625 C 1.8125 -6.625 1.8125 -6.34375 1.8125 -6.125 L 1.8125 -5.15625 L 0.78125 -5.15625 C 0.625 -5.15625 0.296875 -5.15625 0.296875 -4.8125 C 0.296875 -4.453125 0.609375 -4.453125 0.78125 -4.453125 L 1.8125 -4.453125 L 1.8125 -1.453125 C 1.8125 -0.328125 2.5625 0.078125 3.4375 0.078125 C 4.078125 0.078125 5.265625 -0.25 5.265625 -1.46875 C 5.265625 -1.703125 5.265625 -1.96875 4.859375 -1.96875 C 4.484375 -1.96875 4.484375 -1.703125 4.484375 -1.453125 C 4.46875 -0.734375 3.796875 -0.625 3.515625 -0.625 C 2.578125 -0.625 2.578125 -1.21875 2.578125 -1.5 Z M 2.578125 -4.453125 "/>
</symbol>
<symbol overflow="visible" id="glyph1-8">
<path style="stroke:none;" d="M 5 -3.5 C 5 -4.671875 4.453125 -5.21875 3.46875 -5.21875 C 2.65625 -5.21875 2.125 -4.765625 1.921875 -4.546875 L 1.921875 -6.8125 C 1.921875 -7.1875 1.859375 -7.296875 1.453125 -7.296875 L 0.65625 -7.296875 C 0.484375 -7.296875 0.171875 -7.296875 0.171875 -6.953125 C 0.171875 -6.609375 0.484375 -6.609375 0.65625 -6.609375 L 1.140625 -6.609375 L 1.140625 -0.6875 L 0.65625 -0.6875 C 0.484375 -0.6875 0.171875 -0.6875 0.171875 -0.34375 C 0.171875 0 0.484375 0 0.65625 0 L 2.421875 0 C 2.578125 0 2.890625 0 2.890625 -0.34375 C 2.890625 -0.6875 2.578125 -0.6875 2.421875 -0.6875 L 1.921875 -0.6875 L 1.921875 -2.859375 C 1.921875 -4.015625 2.734375 -4.53125 3.375 -4.53125 C 4.078125 -4.53125 4.21875 -4.140625 4.21875 -3.453125 L 4.21875 -0.6875 L 3.734375 -0.6875 C 3.5625 -0.6875 3.25 -0.6875 3.25 -0.34375 C 3.25 0 3.5625 0 3.734375 0 L 5.484375 0 C 5.65625 0 5.96875 0 5.96875 -0.34375 C 5.96875 -0.6875 5.65625 -0.6875 5.484375 -0.6875 L 5 -0.6875 Z M 5 -3.5 "/>
</symbol>
<symbol overflow="visible" id="glyph1-9">
<path style="stroke:none;" d="M 5.0625 -4.453125 L 5.375 -4.453125 C 5.546875 -4.453125 5.875 -4.453125 5.875 -4.8125 C 5.875 -5.15625 5.546875 -5.15625 5.375 -5.15625 L 4.0625 -5.15625 C 3.890625 -5.15625 3.578125 -5.15625 3.578125 -4.8125 C 3.578125 -4.453125 3.890625 -4.453125 4.0625 -4.453125 L 4.359375 -4.453125 C 4.03125 -3.484375 3.34375 -1.484375 3.171875 -0.796875 C 3.109375 -1.0625 3.0625 -1.1875 2.9375 -1.515625 L 1.828125 -4.453125 L 2.109375 -4.453125 C 2.265625 -4.453125 2.59375 -4.453125 2.59375 -4.8125 C 2.59375 -5.15625 2.265625 -5.15625 2.109375 -5.15625 L 0.78125 -5.15625 C 0.625 -5.15625 0.296875 -5.15625 0.296875 -4.8125 C 0.296875 -4.453125 0.625 -4.453125 0.78125 -4.453125 L 1.109375 -4.453125 L 2.78125 -0.15625 C 2.828125 -0.03125 2.828125 -0.015625 2.828125 0 C 2.828125 0.03125 2.515625 1.0625 2.34375 1.40625 C 2.265625 1.515625 1.96875 2.078125 1.40625 2.015625 C 1.40625 1.984375 1.453125 1.90625 1.453125 1.78125 C 1.453125 1.5 1.25 1.3125 0.984375 1.3125 C 0.6875 1.3125 0.5 1.515625 0.5 1.796875 C 0.5 2.25 0.890625 2.71875 1.484375 2.71875 C 2.640625 2.71875 3.15625 1.1875 3.1875 1.09375 Z M 5.0625 -4.453125 "/>
</symbol>
<symbol overflow="visible" id="glyph1-10">
<path style="stroke:none;" d="M 5.421875 -3.625 C 5.421875 -3.890625 5.421875 -5.21875 4.359375 -5.21875 C 3.9375 -5.21875 3.53125 -5.03125 3.21875 -4.59375 C 3.140625 -4.765625 2.875 -5.21875 2.3125 -5.21875 C 1.765625 -5.21875 1.40625 -4.875 1.296875 -4.765625 C 1.296875 -5.15625 1.046875 -5.15625 0.828125 -5.15625 L 0.46875 -5.15625 C 0.296875 -5.15625 -0.015625 -5.15625 -0.015625 -4.8125 C -0.015625 -4.453125 0.265625 -4.453125 0.640625 -4.453125 L 0.640625 -0.6875 C 0.25 -0.6875 -0.015625 -0.6875 -0.015625 -0.34375 C -0.015625 0 0.296875 0 0.46875 0 L 1.46875 0 C 1.640625 0 1.953125 0 1.953125 -0.34375 C 1.953125 -0.6875 1.671875 -0.6875 1.296875 -0.6875 L 1.296875 -2.890625 C 1.296875 -3.890625 1.734375 -4.53125 2.265625 -4.53125 C 2.59375 -4.53125 2.6875 -4.109375 2.6875 -3.546875 L 2.6875 -0.6875 C 2.484375 -0.6875 2.15625 -0.6875 2.15625 -0.34375 C 2.15625 0 2.484375 0 2.65625 0 L 3.53125 0 C 3.6875 0 4 0 4 -0.34375 C 4 -0.6875 3.734375 -0.6875 3.359375 -0.6875 L 3.359375 -2.890625 C 3.359375 -3.890625 3.796875 -4.53125 4.3125 -4.53125 C 4.65625 -4.53125 4.75 -4.109375 4.75 -3.546875 L 4.75 -0.6875 C 4.546875 -0.6875 4.21875 -0.6875 4.21875 -0.34375 C 4.21875 0 4.546875 0 4.703125 0 L 5.578125 0 C 5.75 0 6.0625 0 6.0625 -0.34375 C 6.0625 -0.6875 5.78125 -0.6875 5.421875 -0.6875 Z M 5.421875 -3.625 "/>
</symbol>
<symbol overflow="visible" id="glyph1-11">
<path style="stroke:none;" d="M 3.609375 -6.78125 C 3.609375 -7.078125 3.375 -7.3125 3.078125 -7.3125 C 2.765625 -7.3125 2.53125 -7.078125 2.53125 -6.78125 C 2.53125 -6.484375 2.765625 -6.234375 3.078125 -6.234375 C 3.375 -6.234375 3.609375 -6.484375 3.609375 -6.78125 Z M 1.546875 -5.15625 C 1.390625 -5.15625 1.078125 -5.15625 1.078125 -4.8125 C 1.078125 -4.453125 1.390625 -4.453125 1.546875 -4.453125 L 2.828125 -4.453125 L 2.828125 -0.6875 L 1.46875 -0.6875 C 1.296875 -0.6875 0.984375 -0.6875 0.984375 -0.34375 C 0.984375 0 1.296875 0 1.46875 0 L 4.796875 0 C 4.953125 0 5.265625 0 5.265625 -0.34375 C 5.265625 -0.6875 4.953125 -0.6875 4.796875 -0.6875 L 3.609375 -0.6875 L 3.609375 -4.65625 C 3.609375 -5.03125 3.53125 -5.15625 3.125 -5.15625 Z M 1.546875 -5.15625 "/>
</symbol>
<symbol overflow="visible" id="glyph1-12">
<path style="stroke:none;" d="M 5 -6.8125 C 5 -7.1875 4.921875 -7.296875 4.515625 -7.296875 L 3.734375 -7.296875 C 3.5625 -7.296875 3.25 -7.296875 3.25 -6.953125 C 3.25 -6.609375 3.5625 -6.609375 3.734375 -6.609375 L 4.21875 -6.609375 L 4.21875 -4.625 C 4.03125 -4.8125 3.53125 -5.21875 2.8125 -5.21875 C 1.546875 -5.21875 0.4375 -4.078125 0.4375 -2.5625 C 0.4375 -1.09375 1.46875 0.078125 2.703125 0.078125 C 3.484375 0.078125 4 -0.390625 4.21875 -0.65625 C 4.21875 -0.15625 4.21875 0 4.703125 0 L 5.484375 0 C 5.65625 0 5.96875 0 5.96875 -0.34375 C 5.96875 -0.6875 5.65625 -0.6875 5.484375 -0.6875 L 5 -0.6875 Z M 4.21875 -2.265625 C 4.21875 -1.609375 3.671875 -0.625 2.765625 -0.625 C 1.90625 -0.625 1.21875 -1.5 1.21875 -2.5625 C 1.21875 -3.71875 2.03125 -4.53125 2.875 -4.53125 C 3.65625 -4.53125 4.21875 -3.828125 4.21875 -3.203125 Z M 4.21875 -2.265625 "/>
</symbol>
<symbol overflow="visible" id="glyph1-13">
<path style="stroke:none;" d="M 5.0625 -4.453125 L 5.375 -4.453125 C 5.546875 -4.453125 5.875 -4.453125 5.875 -4.8125 C 5.875 -5.15625 5.546875 -5.15625 5.375 -5.15625 L 4.0625 -5.15625 C 3.890625 -5.15625 3.578125 -5.15625 3.578125 -4.8125 C 3.578125 -4.453125 3.890625 -4.453125 4.0625 -4.453125 L 4.359375 -4.453125 L 3.078125 -0.609375 L 1.78125 -4.453125 L 2.078125 -4.453125 C 2.25 -4.453125 2.5625 -4.453125 2.5625 -4.8125 C 2.5625 -5.15625 2.25 -5.15625 2.078125 -5.15625 L 0.765625 -5.15625 C 0.59375 -5.15625 0.28125 -5.15625 0.28125 -4.8125 C 0.28125 -4.453125 0.59375 -4.453125 0.765625 -4.453125 L 1.078125 -4.453125 L 2.453125 -0.34375 C 2.578125 0.0625 2.84375 0.0625 3.078125 0.0625 C 3.296875 0.0625 3.5625 0.0625 3.6875 -0.34375 Z M 5.0625 -4.453125 "/>
</symbol>
<symbol overflow="visible" id="glyph1-14">
<path style="stroke:none;" d="M 5.390625 -7.65625 C 5.421875 -7.734375 5.46875 -7.8125 5.46875 -7.90625 C 5.46875 -8.15625 5.265625 -8.296875 5.078125 -8.296875 C 4.828125 -8.296875 4.734375 -8.09375 4.671875 -7.96875 L 0.75 0.34375 C 0.71875 0.4375 0.6875 0.515625 0.6875 0.59375 C 0.6875 0.84375 0.890625 0.984375 1.0625 0.984375 C 1.3125 0.984375 1.40625 0.796875 1.46875 0.671875 Z M 5.390625 -7.65625 "/>
</symbol>
<symbol overflow="visible" id="glyph1-15">
<path style="stroke:none;" d="M 5 -3.5 C 5 -4.671875 4.453125 -5.21875 3.46875 -5.21875 C 2.65625 -5.21875 2.125 -4.765625 1.921875 -4.546875 C 1.921875 -4.984375 1.921875 -5.15625 1.453125 -5.15625 L 0.65625 -5.15625 C 0.484375 -5.15625 0.171875 -5.15625 0.171875 -4.8125 C 0.171875 -4.453125 0.484375 -4.453125 0.65625 -4.453125 L 1.140625 -4.453125 L 1.140625 -0.6875 L 0.65625 -0.6875 C 0.484375 -0.6875 0.171875 -0.6875 0.171875 -0.34375 C 0.171875 0 0.484375 0 0.65625 0 L 2.421875 0 C 2.578125 0 2.890625 0 2.890625 -0.34375 C 2.890625 -0.6875 2.578125 -0.6875 2.421875 -0.6875 L 1.921875 -0.6875 L 1.921875 -2.859375 C 1.921875 -4.015625 2.734375 -4.53125 3.375 -4.53125 C 4.078125 -4.53125 4.21875 -4.140625 4.21875 -3.453125 L 4.21875 -0.6875 L 3.734375 -0.6875 C 3.5625 -0.6875 3.25 -0.6875 3.25 -0.34375 C 3.25 0 3.5625 0 3.734375 0 L 5.484375 0 C 5.65625 0 5.96875 0 5.96875 -0.34375 C 5.96875 -0.6875 5.65625 -0.6875 5.484375 -0.6875 L 5 -0.6875 Z M 5 -3.5 "/>
</symbol>
<symbol overflow="visible" id="glyph1-16">
<path style="stroke:none;" d="M 2.421875 2.65625 C 2.578125 2.65625 2.890625 2.65625 2.890625 2.3125 C 2.890625 1.953125 2.578125 1.953125 2.421875 1.953125 L 1.921875 1.953125 L 1.921875 -0.59375 C 2.21875 -0.28125 2.65625 0.078125 3.328125 0.078125 C 4.59375 0.078125 5.703125 -1.0625 5.703125 -2.578125 C 5.703125 -4.046875 4.703125 -5.21875 3.453125 -5.21875 C 2.578125 -5.21875 2.03125 -4.703125 1.921875 -4.578125 C 1.921875 -4.96875 1.921875 -5.15625 1.453125 -5.15625 L 0.65625 -5.15625 C 0.484375 -5.15625 0.171875 -5.15625 0.171875 -4.8125 C 0.171875 -4.453125 0.484375 -4.453125 0.65625 -4.453125 L 1.140625 -4.453125 L 1.140625 1.953125 L 0.65625 1.953125 C 0.484375 1.953125 0.171875 1.953125 0.171875 2.3125 C 0.171875 2.65625 0.484375 2.65625 0.65625 2.65625 Z M 1.921875 -3.171875 C 1.921875 -3.859375 2.59375 -4.53125 3.375 -4.53125 C 4.234375 -4.53125 4.921875 -3.65625 4.921875 -2.578125 C 4.921875 -1.4375 4.109375 -0.625 3.265625 -0.625 C 2.359375 -0.625 1.921875 -1.640625 1.921875 -2.234375 Z M 1.921875 -3.171875 "/>
</symbol>
<symbol overflow="visible" id="glyph1-17">
<path style="stroke:none;" d="M 5 -4.65625 C 5 -5.03125 4.921875 -5.15625 4.515625 -5.15625 L 3.734375 -5.15625 C 3.5625 -5.15625 3.25 -5.15625 3.25 -4.8125 C 3.25 -4.453125 3.5625 -4.453125 3.734375 -4.453125 L 4.21875 -4.453125 L 4.21875 -1.859375 C 4.21875 -0.890625 3.40625 -0.625 2.875 -0.625 C 1.921875 -0.625 1.921875 -1.046875 1.921875 -1.421875 L 1.921875 -4.65625 C 1.921875 -5.03125 1.859375 -5.15625 1.453125 -5.15625 L 0.65625 -5.15625 C 0.484375 -5.15625 0.171875 -5.15625 0.171875 -4.8125 C 0.171875 -4.453125 0.484375 -4.453125 0.65625 -4.453125 L 1.140625 -4.453125 L 1.140625 -1.359375 C 1.140625 -0.265625 1.859375 0.078125 2.78125 0.078125 C 3.515625 0.078125 3.96875 -0.234375 4.203125 -0.4375 C 4.203125 0 4.5 0 4.703125 0 L 5.484375 0 C 5.65625 0 5.96875 0 5.96875 -0.34375 C 5.96875 -0.6875 5.65625 -0.6875 5.484375 -0.6875 L 5 -0.6875 Z M 5 -4.65625 "/>
</symbol>
<symbol overflow="visible" id="glyph1-18">
<path style="stroke:none;" d="M 3.46875 -6.8125 C 3.46875 -7.1875 3.390625 -7.296875 2.984375 -7.296875 L 1.234375 -7.296875 C 1.0625 -7.296875 0.75 -7.296875 0.75 -6.953125 C 0.75 -6.609375 1.0625 -6.609375 1.234375 -6.609375 L 2.6875 -6.609375 L 2.6875 -0.6875 L 1.234375 -0.6875 C 1.0625 -0.6875 0.75 -0.6875 0.75 -0.34375 C 0.75 0 1.0625 0 1.234375 0 L 4.921875 0 C 5.09375 0 5.40625 0 5.40625 -0.34375 C 5.40625 -0.6875 5.09375 -0.6875 4.921875 -0.6875 L 3.46875 -0.6875 Z M 3.46875 -6.8125 "/>
</symbol>
</g>
</defs>
<g id="surface1">
<path style="fill-rule:nonzero;fill:rgb(0%,0%,0%);fill-opacity:1;stroke-width:0.3985;stroke-linecap:butt;stroke-linejoin:miter;stroke:rgb(0%,0%,0%);stroke-opacity:1;stroke-miterlimit:10;" d="M 0.996656 0.00134375 C 0.996656 0.552125 0.551344 0.997438 0.0005625 0.997438 C -0.550219 0.997438 -0.995531 0.552125 -0.995531 0.00134375 C -0.995531 -0.549437 -0.550219 -0.99475 0.0005625 -0.99475 C 0.551344 -0.99475 0.996656 -0.549437 0.996656 0.00134375 Z M 0.996656 0.00134375 " transform="matrix(1,0,0,-1,116.976,36.349)"/>
<g style="fill:rgb(0%,0%,0%);fill-opacity:1;">
  <use xlink:href="#glyph0-1" x="95.316" y="40.316"/>
  <use xlink:href="#glyph0-2" x="98.567814" y="40.316"/>
  <use xlink:href="#glyph0-1" x="105.071443" y="40.316"/>
  <use xlink:href="#glyph0-3" x="108.323258" y="40.316"/>
</g>
<path style="fill-rule:nonzero;fill:rgb(0%,0%,0%);fill-opacity:1;stroke-width:0.3985;stroke-linecap:butt;stroke-linejoin:miter;stroke:rgb(0%,0%,0%);stroke-opacity:1;stroke-miterlimit:10;" d="M 0.996656 -28.346312 C 0.996656 -27.795531 0.551344 -27.350219 0.0005625 -27.350219 C -0.550219 -27.350219 -0.995531 -27.795531 -0.995531 -28.346312 C -0.995531 -28.897094 -0.550219 -29.342406 0.0005625 -29.342406 C 0.551344 -29.342406 0.996656 -28.897094 0.996656 -28.346312 Z M 0.996656 -28.346312 " transform="matrix(1,0,0,-1,116.976,36.349)"/>
<g style="fill:rgb(0%,0%,0%);fill-opacity:1;">
  <use xlink:href="#glyph0-4" x="18.577" y="67.684"/>
  <use xlink:href="#glyph0-5" x="23.779903" y="67.684"/>
  <use xlink:href="#glyph0-2" x="29.633169" y="67.684"/>
  <use xlink:href="#glyph0-2" x="36.136798" y="67.684"/>
  <use xlink:href="#glyph0-6" x="42.640427" y="67.684"/>
  <use xlink:href="#glyph0-4" x="47.84333" y="67.684"/>
  <use xlink:href="#glyph0-3" x="53.046233" y="67.684"/>
  <use xlink:href="#glyph0-6" x="57.598773" y="67.684"/>
  <use xlink:href="#glyph0-7" x="62.801676" y="67.684"/>
</g>
<g style="fill:rgb(0%,0%,0%);fill-opacity:1;">
  <use xlink:href="#glyph0-8" x="73.2027" y="67.684"/>
  <use xlink:href="#glyph0-9" x="81.657417" y="67.684"/>
</g>
<g style="fill:rgb(0%,0%,0%);fill-opacity:1;">
  <use xlink:href="#glyph0-10" x="87.838256" y="67.684"/>
  <use xlink:href="#glyph0-11" x="94.016703" y="67.684"/>
  <use xlink:href="#glyph0-1" x="103.772146" y="67.684"/>
  <use xlink:href="#glyph0-5" x="107.023961" y="67.684"/>
</g>
<g style="fill:rgb(0%,0%,0%);fill-opacity:1;">
  <use xlink:href="#glyph1-1" x="92.368" y="19.409"/>
  <use xlink:href="#glyph1-2" x="98.520146" y="19.409"/>
  <use xlink:href="#glyph1-3" x="104.672292" y="19.409"/>
  <use xlink:href="#glyph1-4" x="110.824438" y="19.409"/>
  <use xlink:href="#glyph1-1" x="116.976584" y="19.409"/>
  <use xlink:href="#glyph1-5" x="123.12873" y="19.409"/>
  <use xlink:href="#glyph1-6" x="129.280876" y="19.409"/>
  <use xlink:href="#glyph1-2" x="135.433021" y="19.409"/>
</g>
<path style="fill:none;stroke-width:0.3985;stroke-linecap:butt;stroke-linejoin:miter;stroke:rgb(0%,0%,0%);stroke-opacity:1;stroke-miterlimit:10;" d="M 0.0005625 0.00134375 L 0.0005625 -28.346312 " transform="matrix(1,0,0,-1,116.976,36.349)"/>
<path style="fill:none;stroke-width:0.3985;stroke-linecap:butt;stroke-linejoin:miter;stroke:rgb(0%,0%,0%);stroke-opacity:1;stroke-dasharray:2.98883,2.98883;stroke-miterlimit:10;" d="M 0.0005625 -28.346312 L 0.0005625 -56.693969 " transform="matrix(1,0,0,-1,116.976,36.349)"/>
<path style="fill-rule:nonzero;fill:rgb(0%,0%,0%);fill-opacity:1;stroke-width:0.3985;stroke-linecap:butt;stroke-linejoin:miter;stroke:rgb(0%,0%,0%);stroke-opacity:1;stroke-miterlimit:10;" d="M 114.383375 0.00134375 C 114.383375 0.552125 113.938063 0.997438 113.387281 0.997438 C 112.8365 0.997438 112.391188 0.552125 112.391188 0.00134375 C 112.391188 -0.549437 112.8365 -0.99475 113.387281 -0.99475 C 113.938063 -0.99475 114.383375 -0.549437 114.383375 0.00134375 Z M 114.383375 0.00134375 " transform="matrix(1,0,0,-1,116.976,36.349)"/>
<g style="fill:rgb(0%,0%,0%);fill-opacity:1;">
  <use xlink:href="#glyph0-1" x="234.462" y="40.316"/>
  <use xlink:href="#glyph0-2" x="237.713814" y="40.316"/>
  <use xlink:href="#glyph0-1" x="244.217443" y="40.316"/>
  <use xlink:href="#glyph0-3" x="247.469258" y="40.316"/>
</g>
<path style="fill-rule:nonzero;fill:rgb(0%,0%,0%);fill-opacity:1;stroke-width:0.3985;stroke-linecap:butt;stroke-linejoin:miter;stroke:rgb(0%,0%,0%);stroke-opacity:1;stroke-miterlimit:10;" d="M 114.383375 -28.346312 C 114.383375 -27.795531 113.938063 -27.350219 113.387281 -27.350219 C 112.8365 -27.350219 112.391188 -27.795531 112.391188 -28.346312 C 112.391188 -28.897094 112.8365 -29.342406 113.387281 -29.342406 C 113.938063 -29.342406 114.383375 -28.897094 114.383375 -28.346312 Z M 114.383375 -28.346312 " transform="matrix(1,0,0,-1,116.976,36.349)"/>
<g style="fill:rgb(0%,0%,0%);fill-opacity:1;">
  <use xlink:href="#glyph0-12" x="234.462" y="68.662"/>
</g>
<g style="fill:rgb(0%,0%,0%);fill-opacity:1;">
  <use xlink:href="#glyph0-13" x="242.593927" y="68.662"/>
  <use xlink:href="#glyph0-1" x="248.447193" y="68.662"/>
  <use xlink:href="#glyph0-3" x="251.699007" y="68.662"/>
</g>
<g style="fill:rgb(0%,0%,0%);fill-opacity:1;">
  <use xlink:href="#glyph1-7" x="191.235" y="19.409"/>
  <use xlink:href="#glyph1-8" x="197.387146" y="19.409"/>
  <use xlink:href="#glyph1-9" x="203.539292" y="19.409"/>
  <use xlink:href="#glyph1-10" x="209.691438" y="19.409"/>
  <use xlink:href="#glyph1-11" x="215.843584" y="19.409"/>
  <use xlink:href="#glyph1-6" x="221.99573" y="19.409"/>
</g>
<path style="fill:none;stroke-width:0.398;stroke-linecap:butt;stroke-linejoin:miter;stroke:rgb(0%,0%,0%);stroke-opacity:1;stroke-miterlimit:10;" d="M 0.00171875 -0.0009375 L 3.689219 -0.0009375 " transform="matrix(1,0,0,-1,228.885,19.21)"/>
<g style="fill:rgb(0%,0%,0%);fill-opacity:1;">
  <use xlink:href="#glyph1-12" x="232.576" y="19.409"/>
  <use xlink:href="#glyph1-5" x="238.728146" y="19.409"/>
  <use xlink:href="#glyph1-11" x="244.880292" y="19.409"/>
  <use xlink:href="#glyph1-13" x="251.032438" y="19.409"/>
  <use xlink:href="#glyph1-3" x="257.184584" y="19.409"/>
  <use xlink:href="#glyph1-5" x="263.33673" y="19.409"/>
</g>
<path style="fill:none;stroke-width:0.3985;stroke-linecap:butt;stroke-linejoin:miter;stroke:rgb(0%,0%,0%);stroke-opacity:1;stroke-miterlimit:10;" d="M 113.387281 0.00134375 L 113.387281 -28.346312 " transform="matrix(1,0,0,-1,116.976,36.349)"/>
<path style="fill:none;stroke-width:0.3985;stroke-linecap:butt;stroke-linejoin:miter;stroke:rgb(0%,0%,0%);stroke-opacity:1;stroke-dasharray:2.98883,2.98883;stroke-miterlimit:10;" d="M 113.387281 -28.346312 L 113.387281 -56.693969 " transform="matrix(1,0,0,-1,116.976,36.349)"/>
<path style="fill:none;stroke-width:0.3985;stroke-linecap:butt;stroke-linejoin:miter;stroke:rgb(0%,0%,0%);stroke-opacity:1;stroke-miterlimit:10;" d="M 0.0005625 -28.346312 L 109.801344 -28.346312 " transform="matrix(1,0,0,-1,116.976,36.349)"/>
<path style=" stroke:none;fill-rule:nonzero;fill:rgb(0%,0%,0%);fill-opacity:1;" d="M 230.363281 64.695312 C 229.300781 64.496094 227.574219 63.898438 226.378906 63.203125 L 226.378906 66.191406 C 227.574219 65.492188 229.300781 64.894531 230.363281 64.695312 "/>
<g style="fill:rgb(0%,0%,0%);fill-opacity:1;">
  <use xlink:href="#glyph1-1" x="139.833" y="59.598"/>
  <use xlink:href="#glyph1-2" x="145.985146" y="59.598"/>
  <use xlink:href="#glyph1-3" x="152.137292" y="59.598"/>
  <use xlink:href="#glyph1-4" x="158.289438" y="59.598"/>
  <use xlink:href="#glyph1-1" x="164.441584" y="59.598"/>
  <use xlink:href="#glyph1-14" x="170.59373" y="59.598"/>
  <use xlink:href="#glyph1-15" x="176.745876" y="59.598"/>
  <use xlink:href="#glyph1-6" x="182.898021" y="59.598"/>
  <use xlink:href="#glyph1-12" x="189.050167" y="59.598"/>
  <use xlink:href="#glyph1-3" x="195.202313" y="59.598"/>
  <use xlink:href="#glyph1-2" x="201.354459" y="59.598"/>
</g>
<path style="fill-rule:nonzero;fill:rgb(0%,0%,0%);fill-opacity:1;stroke-width:0.3985;stroke-linecap:butt;stroke-linejoin:miter;stroke:rgb(0%,0%,0%);stroke-opacity:1;stroke-miterlimit:10;" d="M 227.770094 0.00134375 C 227.770094 0.552125 227.324781 0.997438 226.774 0.997438 C 226.223219 0.997438 225.777906 0.552125 225.777906 0.00134375 C 225.777906 -0.549437 226.223219 -0.99475 226.774 -0.99475 C 227.324781 -0.99475 227.770094 -0.549437 227.770094 0.00134375 Z M 227.770094 0.00134375 " transform="matrix(1,0,0,-1,116.976,36.349)"/>
<g style="fill:rgb(0%,0%,0%);fill-opacity:1;">
  <use xlink:href="#glyph0-1" x="347.848" y="40.316"/>
  <use xlink:href="#glyph0-2" x="351.099814" y="40.316"/>
  <use xlink:href="#glyph0-1" x="357.603443" y="40.316"/>
  <use xlink:href="#glyph0-3" x="360.855258" y="40.316"/>
</g>
<g style="fill:rgb(0%,0%,0%);fill-opacity:1;">
  <use xlink:href="#glyph1-5" x="280.875" y="19.409"/>
  <use xlink:href="#glyph1-6" x="287.027146" y="19.409"/>
  <use xlink:href="#glyph1-4" x="293.179292" y="19.409"/>
  <use xlink:href="#glyph1-6" x="299.331438" y="19.409"/>
  <use xlink:href="#glyph1-7" x="305.483584" y="19.409"/>
</g>
<path style="fill:none;stroke-width:0.398;stroke-linecap:butt;stroke-linejoin:miter;stroke:rgb(0%,0%,0%);stroke-opacity:1;stroke-miterlimit:10;" d="M -0.00090625 -0.0009375 L 3.6905 -0.0009375 " transform="matrix(1,0,0,-1,312.372,19.21)"/>
<g style="fill:rgb(0%,0%,0%);fill-opacity:1;">
  <use xlink:href="#glyph1-2" x="316.064" y="19.409"/>
  <use xlink:href="#glyph1-7" x="322.216146" y="19.409"/>
  <use xlink:href="#glyph1-1" x="328.368292" y="19.409"/>
  <use xlink:href="#glyph1-7" x="334.520438" y="19.409"/>
  <use xlink:href="#glyph1-3" x="340.672584" y="19.409"/>
</g>
<path style="fill:none;stroke-width:0.398;stroke-linecap:butt;stroke-linejoin:miter;stroke:rgb(0%,0%,0%);stroke-opacity:1;stroke-miterlimit:10;" d="M 0.0015 -0.0009375 L 3.692906 -0.0009375 " transform="matrix(1,0,0,-1,347.561,19.21)"/>
<g style="fill:rgb(0%,0%,0%);fill-opacity:1;">
  <use xlink:href="#glyph1-16" x="351.253" y="19.409"/>
  <use xlink:href="#glyph1-17" x="357.405146" y="19.409"/>
  <use xlink:href="#glyph1-4" x="363.557292" y="19.409"/>
  <use xlink:href="#glyph1-18" x="369.709438" y="19.409"/>
  <use xlink:href="#glyph1-11" x="375.861584" y="19.409"/>
  <use xlink:href="#glyph1-2" x="382.01373" y="19.409"/>
  <use xlink:href="#glyph1-8" x="388.165876" y="19.409"/>
  <use xlink:href="#glyph1-3" x="394.318021" y="19.409"/>
  <use xlink:href="#glyph1-5" x="400.470167" y="19.409"/>
</g>
<path style="fill:none;stroke-width:0.3985;stroke-linecap:butt;stroke-linejoin:miter;stroke:rgb(0%,0%,0%);stroke-opacity:1;stroke-dasharray:2.98883,2.98883;stroke-miterlimit:10;" d="M 226.774 0.00134375 L 226.774 -56.693969 " transform="matrix(1,0,0,-1,116.976,36.349)"/>
<path style="fill:none;stroke-width:0.3985;stroke-linecap:butt;stroke-linejoin:miter;stroke:rgb(0%,0%,0%);stroke-opacity:1;stroke-dasharray:2.98883,2.98883;stroke-miterlimit:10;" d="M -106.401781 -60.596312 L 297.649 -60.596312 L 297.649 32.247438 L -106.401781 32.247438 Z M -106.401781 -60.596312 " transform="matrix(1,0,0,-1,116.976,36.349)"/>
</g>
</svg>
